<?xml version="1.0" encoding="UTF-8" standalone="no"?>
<!-- Created with Inkscape (http://www.inkscape.org/) -->

<svg
   xmlns:dc="http://purl.org/dc/elements/1.1/"
   xmlns:cc="http://creativecommons.org/ns#"
   xmlns:rdf="http://www.w3.org/1999/02/22-rdf-syntax-ns#"
   xmlns:svg="http://www.w3.org/2000/svg"
   xmlns="http://www.w3.org/2000/svg"
   xmlns:xlink="http://www.w3.org/1999/xlink"
   xmlns:sodipodi="http://sodipodi.sourceforge.net/DTD/sodipodi-0.dtd"
   xmlns:inkscape="http://www.inkscape.org/namespaces/inkscape"
   width="1024"
   height="640"
   viewBox="0 0 270.93333 169.33334"
   version="1.1"
   id="svg17491"
   inkscape:version="0.92.4 (f8dce91, 2019-08-02)"
   sodipodi:docname="bg-beach.svg"
   inkscape:export-filename="/home/hamdi/MY_FILES/works-marketplace/cartoon-tileset-08-beach-done/uploads/png2x/bg-beach.png"
   inkscape:export-xdpi="192"
   inkscape:export-ydpi="192">
  <defs
     id="defs17485">
    <clipPath
       clipPathUnits="userSpaceOnUse"
       id="clipPath17274">
      <rect
         style="opacity:1;vector-effect:none;fill:#729580;fill-opacity:1;stroke:none;stroke-width:0.70194983px;stroke-linecap:butt;stroke-linejoin:miter;stroke-miterlimit:4;stroke-dasharray:none;stroke-dashoffset:0;stroke-opacity:1;paint-order:normal"
         id="rect17276"
         width="270.93335"
         height="169.33334"
         x="274.30505"
         y="35.984901" />
    </clipPath>
    <clipPath
       clipPathUnits="userSpaceOnUse"
       id="clipPath37796">
      <rect
         transform="translate(-4.7050103e-6)"
         style="opacity:1;vector-effect:none;fill:#9bbbcd;fill-opacity:1;stroke:none;stroke-width:1.54174387;stroke-linecap:butt;stroke-linejoin:miter;stroke-miterlimit:4;stroke-dasharray:none;stroke-dashoffset:0;stroke-opacity:1;paint-order:normal"
         id="rect37798"
         width="270.93335"
         height="169.33333"
         x="308.02814"
         y="7.3779297e-06"
         clip-path="url(#clipPath37755-8)" />
    </clipPath>
    <clipPath
       clipPathUnits="userSpaceOnUse"
       id="clipPath37755-3">
      <rect
         style="opacity:1;vector-effect:none;fill:#12222b;fill-opacity:0.68911917;stroke:none;stroke-width:1.54174387;stroke-linecap:butt;stroke-linejoin:miter;stroke-miterlimit:4;stroke-dasharray:none;stroke-dashoffset:0;stroke-opacity:1;paint-order:normal"
         id="rect37757-8"
         width="270.93335"
         height="169.33333"
         x="308.02814"
         y="7.9375004e-06" />
    </clipPath>
    <clipPath
       clipPathUnits="userSpaceOnUse"
       id="clipPath37796-4">
      <rect
         transform="translate(-4.7050103e-6)"
         style="opacity:1;vector-effect:none;fill:#9bbbcd;fill-opacity:1;stroke:none;stroke-width:1.54174387;stroke-linecap:butt;stroke-linejoin:miter;stroke-miterlimit:4;stroke-dasharray:none;stroke-dashoffset:0;stroke-opacity:1;paint-order:normal"
         id="rect37798-9"
         width="270.93335"
         height="169.33333"
         x="308.02814"
         y="7.3779297e-06"
         clip-path="url(#clipPath37755-8)" />
    </clipPath>
    <clipPath
       clipPathUnits="userSpaceOnUse"
       id="clipPath37755-3-2">
      <rect
         style="opacity:1;vector-effect:none;fill:#12222b;fill-opacity:0.68911917;stroke:none;stroke-width:1.54174387;stroke-linecap:butt;stroke-linejoin:miter;stroke-miterlimit:4;stroke-dasharray:none;stroke-dashoffset:0;stroke-opacity:1;paint-order:normal"
         id="rect37757-8-5"
         width="270.93335"
         height="169.33333"
         x="308.02814"
         y="7.9375004e-06" />
    </clipPath>
    <clipPath
       clipPathUnits="userSpaceOnUse"
       id="clipPath37796-4-7">
      <rect
         transform="translate(-4.7050103e-6)"
         style="opacity:1;vector-effect:none;fill:#9bbbcd;fill-opacity:1;stroke:none;stroke-width:1.54174387;stroke-linecap:butt;stroke-linejoin:miter;stroke-miterlimit:4;stroke-dasharray:none;stroke-dashoffset:0;stroke-opacity:1;paint-order:normal"
         id="rect37798-9-8"
         width="270.93335"
         height="169.33333"
         x="308.02814"
         y="7.3779297e-06"
         clip-path="url(#clipPath37755-8)" />
    </clipPath>
    <linearGradient
       inkscape:collect="always"
       id="linearGradient19621">
      <stop
         style="stop-color:#b9c5c9;stop-opacity:1"
         offset="0"
         id="stop19617" />
      <stop
         style="stop-color:#ece4e0;stop-opacity:1"
         offset="1"
         id="stop19619" />
    </linearGradient>
    <clipPath
       clipPathUnits="userSpaceOnUse"
       id="clipPath37755-3-2-4">
      <rect
         style="opacity:1;vector-effect:none;fill:#12222b;fill-opacity:0.68911917;stroke:none;stroke-width:1.54174387;stroke-linecap:butt;stroke-linejoin:miter;stroke-miterlimit:4;stroke-dasharray:none;stroke-dashoffset:0;stroke-opacity:1;paint-order:normal"
         id="rect37757-8-5-5"
         width="270.93335"
         height="169.33333"
         x="308.02814"
         y="7.9375004e-06" />
    </clipPath>
    <clipPath
       clipPathUnits="userSpaceOnUse"
       id="clipPath37796-4-7-5">
      <rect
         transform="translate(-4.7050103e-6)"
         style="opacity:1;vector-effect:none;fill:#9bbbcd;fill-opacity:1;stroke:none;stroke-width:1.54174387;stroke-linecap:butt;stroke-linejoin:miter;stroke-miterlimit:4;stroke-dasharray:none;stroke-dashoffset:0;stroke-opacity:1;paint-order:normal"
         id="rect37798-9-8-0"
         width="270.93335"
         height="169.33333"
         x="308.02814"
         y="7.3779297e-06"
         clip-path="url(#clipPath37755-8)" />
    </clipPath>
    <linearGradient
       inkscape:collect="always"
       xlink:href="#linearGradient19621"
       id="linearGradient2387"
       gradientUnits="userSpaceOnUse"
       x1="449.27835"
       y1="17.649454"
       x2="449.27835"
       y2="67.45253" />
    <clipPath
       clipPathUnits="userSpaceOnUse"
       id="clipPath37755-3-2-4-3">
      <rect
         style="opacity:1;vector-effect:none;fill:#12222b;fill-opacity:0.68911917;stroke:none;stroke-width:1.54174387;stroke-linecap:butt;stroke-linejoin:miter;stroke-miterlimit:4;stroke-dasharray:none;stroke-dashoffset:0;stroke-opacity:1;paint-order:normal"
         id="rect37757-8-5-5-6"
         width="270.93335"
         height="169.33333"
         x="308.02814"
         y="7.9375004e-06" />
    </clipPath>
    <clipPath
       clipPathUnits="userSpaceOnUse"
       id="clipPath2041">
      <rect
         transform="translate(-4.7050103e-6)"
         style="opacity:1;vector-effect:none;fill:#9bbbcd;fill-opacity:1;stroke:none;stroke-width:1.54174387;stroke-linecap:butt;stroke-linejoin:miter;stroke-miterlimit:4;stroke-dasharray:none;stroke-dashoffset:0;stroke-opacity:1;paint-order:normal"
         id="rect2039"
         width="270.93335"
         height="169.33333"
         x="308.02814"
         y="7.3779297e-06"
         clip-path="url(#clipPath37755-8)" />
    </clipPath>
    <clipPath
       clipPathUnits="userSpaceOnUse"
       id="clipPath2053">
      <rect
         style="opacity:1;vector-effect:none;fill:#12222b;fill-opacity:0.68911917;stroke:none;stroke-width:1.54174387;stroke-linecap:butt;stroke-linejoin:miter;stroke-miterlimit:4;stroke-dasharray:none;stroke-dashoffset:0;stroke-opacity:1;paint-order:normal"
         id="rect2051"
         width="270.93335"
         height="169.33333"
         x="308.02814"
         y="7.9375004e-06" />
    </clipPath>
    <clipPath
       clipPathUnits="userSpaceOnUse"
       id="clipPath2616">
      <path
         style="display:inline;opacity:1;vector-effect:none;fill:#962c8c;fill-opacity:1;stroke:none;stroke-width:0.28083843px;stroke-linecap:butt;stroke-linejoin:miter;stroke-miterlimit:4;stroke-dasharray:none;stroke-dashoffset:0;stroke-opacity:1;paint-order:normal"
         d="M 287.6449,-8.2010648 H 558.57824 V 161.13228 H 287.6449 Z"
         id="path2618"
         inkscape:connector-curvature="0" />
    </clipPath>
    <clipPath
       clipPathUnits="userSpaceOnUse"
       id="clipPath5994">
      <rect
         y="14.97769"
         x="445.58688"
         height="169.33334"
         width="270.93335"
         id="rect5996"
         style="opacity:1;vector-effect:none;fill:url(#linearGradient5998);fill-opacity:1;stroke:none;stroke-width:0.35721621;stroke-linecap:butt;stroke-linejoin:miter;stroke-miterlimit:4;stroke-dasharray:none;stroke-dashoffset:0;stroke-opacity:1;paint-order:normal" />
    </clipPath>
    <linearGradient
       inkscape:collect="always"
       xlink:href="#linearGradient49583"
       id="linearGradient2334"
       gradientUnits="userSpaceOnUse"
       x1="419.22845"
       y1="16.889702"
       x2="419.22845"
       y2="158.36992" />
    <linearGradient
       inkscape:collect="always"
       id="linearGradient49583">
      <stop
         style="stop-color:#6197a1;stop-opacity:1"
         offset="0"
         id="stop49579" />
      <stop
         style="stop-color:#b2c0c1;stop-opacity:1"
         offset="1"
         id="stop49581" />
    </linearGradient>
    <clipPath
       clipPathUnits="userSpaceOnUse"
       id="clipPath37796-4-7-5-3">
      <rect
         transform="translate(-4.7050103e-6)"
         style="opacity:1;vector-effect:none;fill:#9bbbcd;fill-opacity:1;stroke:none;stroke-width:1.54174387;stroke-linecap:butt;stroke-linejoin:miter;stroke-miterlimit:4;stroke-dasharray:none;stroke-dashoffset:0;stroke-opacity:1;paint-order:normal"
         id="rect37798-9-8-0-6"
         width="270.93335"
         height="169.33333"
         x="308.02814"
         y="7.3779297e-06"
         clip-path="url(#clipPath37755-8)" />
    </clipPath>
    <linearGradient
       inkscape:collect="always"
       xlink:href="#linearGradient2330"
       id="linearGradient2037"
       gradientUnits="userSpaceOnUse"
       x1="449.27835"
       y1="17.649454"
       x2="449.27835"
       y2="90.074005" />
    <linearGradient
       id="linearGradient2330"
       inkscape:collect="always">
      <stop
         id="stop2326"
         offset="0"
         style="stop-color:#74b7df;stop-opacity:1" />
      <stop
         id="stop2328"
         offset="1"
         style="stop-color:#cbdec9;stop-opacity:1" />
    </linearGradient>
    <clipPath
       clipPathUnits="userSpaceOnUse"
       id="clipPath37755-3-2-4-3-7">
      <rect
         style="opacity:1;vector-effect:none;fill:#12222b;fill-opacity:0.68911917;stroke:none;stroke-width:1.54174387;stroke-linecap:butt;stroke-linejoin:miter;stroke-miterlimit:4;stroke-dasharray:none;stroke-dashoffset:0;stroke-opacity:1;paint-order:normal"
         id="rect37757-8-5-5-6-5"
         width="270.93335"
         height="169.33333"
         x="308.02814"
         y="7.9375004e-06" />
    </clipPath>
    <linearGradient
       inkscape:collect="always"
       xlink:href="#linearGradient2405"
       id="linearGradient2197"
       gradientUnits="userSpaceOnUse"
       gradientTransform="matrix(1,0,0,1.1479032,0,-26.27763)"
       x1="517.36224"
       y1="156.71391"
       x2="517.36224"
       y2="114.80605" />
    <linearGradient
       inkscape:collect="always"
       id="linearGradient2405">
      <stop
         style="stop-color:#5fa1eb;stop-opacity:1"
         offset="0"
         id="stop2401" />
      <stop
         style="stop-color:#80c4db;stop-opacity:1"
         offset="1"
         id="stop2403" />
    </linearGradient>
    <linearGradient
       inkscape:collect="always"
       xlink:href="#linearGradient49583"
       id="linearGradient3004"
       gradientUnits="userSpaceOnUse"
       x1="419.22845"
       y1="16.889702"
       x2="419.22845"
       y2="158.36992" />
    <linearGradient
       inkscape:collect="always"
       xlink:href="#linearGradient49583"
       id="linearGradient3006"
       gradientUnits="userSpaceOnUse"
       x1="419.22845"
       y1="16.889702"
       x2="419.22845"
       y2="158.36992" />
    <linearGradient
       inkscape:collect="always"
       xlink:href="#linearGradient49583"
       id="linearGradient3008"
       gradientUnits="userSpaceOnUse"
       x1="419.22845"
       y1="16.889702"
       x2="419.22845"
       y2="158.36992" />
    <linearGradient
       inkscape:collect="always"
       xlink:href="#linearGradient49583"
       id="linearGradient3010"
       gradientUnits="userSpaceOnUse"
       x1="419.22845"
       y1="16.889702"
       x2="419.22845"
       y2="158.36992" />
    <linearGradient
       inkscape:collect="always"
       xlink:href="#linearGradient49583"
       id="linearGradient3012"
       gradientUnits="userSpaceOnUse"
       x1="419.22845"
       y1="16.889702"
       x2="419.22845"
       y2="158.36992" />
    <linearGradient
       inkscape:collect="always"
       xlink:href="#linearGradient49583"
       id="linearGradient3014"
       gradientUnits="userSpaceOnUse"
       x1="419.22845"
       y1="16.889702"
       x2="419.22845"
       y2="158.36992" />
    <linearGradient
       inkscape:collect="always"
       xlink:href="#linearGradient49583"
       id="linearGradient3016"
       gradientUnits="userSpaceOnUse"
       x1="419.22845"
       y1="16.889702"
       x2="419.22845"
       y2="158.36992" />
    <linearGradient
       inkscape:collect="always"
       xlink:href="#linearGradient49583"
       id="linearGradient3018"
       gradientUnits="userSpaceOnUse"
       x1="419.22845"
       y1="16.889702"
       x2="419.22845"
       y2="158.36992" />
  </defs>
  <sodipodi:namedview
     id="base"
     pagecolor="#ffffff"
     bordercolor="#666666"
     borderopacity="1.0"
     inkscape:pageopacity="0.0"
     inkscape:pageshadow="2"
     inkscape:zoom="0.11282907"
     inkscape:cx="490.60262"
     inkscape:cy="-644.83689"
     inkscape:document-units="px"
     inkscape:current-layer="layer1"
     showgrid="false"
     units="px"
     inkscape:window-width="1320"
     inkscape:window-height="747"
     inkscape:window-x="46"
     inkscape:window-y="21"
     inkscape:window-maximized="1" />
  <metadata
     id="metadata17488">
    <rdf:RDF>
      <cc:Work
         rdf:about="">
        <dc:format>image/svg+xml</dc:format>
        <dc:type
           rdf:resource="http://purl.org/dc/dcmitype/StillImage" />
        <dc:title />
      </cc:Work>
    </rdf:RDF>
  </metadata>
  <g
     inkscape:label="Layer 1"
     inkscape:groupmode="layer"
     id="layer1"
     transform="translate(0,-127.66665)">
    <g
       id="g37784"
       clip-path="url(#clipPath37796-4-7-5-3)"
       transform="translate(-308.02813,127.66665)"
       style="fill:url(#linearGradient2334);fill-opacity:1">
      <path
         inkscape:connector-curvature="0"
         id="rect19224"
         d="M 308.02814,7.3779297e-6 H 578.96149 V 169.33334 H 308.02814 Z"
         clip-path="url(#clipPath37755-3-2-4-3-7)"
         style="opacity:1;vector-effect:none;fill:url(#linearGradient2037);fill-opacity:1;stroke:none;stroke-width:1.54174387;stroke-linecap:butt;stroke-linejoin:miter;stroke-miterlimit:4;stroke-dasharray:none;stroke-dashoffset:0;stroke-opacity:1;paint-order:normal"
         transform="matrix(1.1262691,0,0,1.1262691,-49.813511,-10.882191)" />
      <path
         inkscape:connector-curvature="0"
         style="opacity:1;vector-effect:none;fill:url(#linearGradient2197);fill-opacity:1;fill-rule:nonzero;stroke:none;stroke-width:0.79411393;stroke-linecap:butt;stroke-linejoin:miter;stroke-miterlimit:4;stroke-dasharray:none;stroke-dashoffset:0;stroke-opacity:1;paint-order:normal"
         d="m 306.32624,93.482052 h 277.6396 v 84.185788 h -277.6396 z"
         id="rect2347" />
      <g
         id="g24338"
         style="fill:url(#linearGradient3004)"
         transform="translate(128.37475,1.2436506)">
        <path
           inkscape:connector-curvature="0"
           id="path24199"
           d="m 324.87542,74.360707 c 3.30933,-2.515897 7.50054,-3.109516 11.35538,-4.072277 4.31367,-1.077354 10.38908,0.03963 14.55819,0.872631 3.94912,0.789045 8.73861,0 12.8112,0 8.24964,0 16.49928,0 24.74892,0 2.44715,0 6.38528,0.782439 8.73491,0 2.65053,-0.882637 6.40754,-2.036139 9.31723,-2.036139 3.35424,0 20.96365,-5.817835 18.63449,-10.471568 -0.32858,-0.656497 -1.69978,-3.571759 -2.32932,-3.781398 -3.76546,-1.253921 -14.54101,0.735769 -17.17865,-0.581754 -0.89659,-0.447846 -0.29116,-5.656481 -0.29116,-6.690167 0,-7.47359 -4.0589,-13.368745 -10.19074,-17.452613 -0.73507,-0.489568 -2.27117,-0.290876 -3.20278,-0.290876 -5.81936,0 -8.37069,3.247938 -13.10239,6.399291 -0.79403,0.528837 -2.76834,1.458953 -3.2028,2.327016 -0.35226,0.703841 -2.60445,6.194704 -2.91163,6.399291 -0.70369,0.468664 -1.57704,-3.7814 -4.94979,-3.7814 -1.75754,0 -0.58232,2.781368 -0.58232,3.7814 0,0.249141 -1.37035,-1.163509 -3.2028,-1.163509 -1.67952,0 -2.0377,2.811959 -2.62048,2.617891 -2.35956,-0.785746 -2.98209,-5.416415 -5.53211,-6.690167 -3.85934,-1.927772 -8.35901,-1.454385 -12.8112,-1.454385 -5.02724,0 -10.71117,7.54454 -11.64655,12.216828 -0.40925,2.044266 0.62811,6.016931 -0.29116,7.853677 -0.61943,1.237642 -3.86123,-0.543742 -4.94979,0 -3.01236,1.504696 -0.97648,3.696301 -2.03814,5.817537 -0.25718,0.513847 -4.73059,-0.147071 -6.11444,2.617891 -0.41574,0.830667 -0.17636,2.097643 -0.58233,2.908768 -3.20144,6.39657 3.2012,6.83641 7.57026,4.654032 z"
           style="fill:#d9e1d9;fill-opacity:1;stroke:none;stroke-width:0.26458335px;stroke-linecap:butt;stroke-linejoin:miter;stroke-opacity:1" />
        <path
           id="path24223"
           transform="matrix(0.26458334,0,0,0.26458334,138.69479,-16.933323)"
           d="m 825.59766,268.50586 c -19.24546,0.17178 -40.53791,2.58091 -50.60938,3.83984 -5.18559,0.6482 -12.85328,-0.51572 -17.67773,1.41407 -21.10216,8.44086 -9.71461,13.5911 -14.14063,26.86914 -1.51566,4.54699 -12.36242,-1.43727 -14.14258,2.12304 -0.45411,0.90824 4.34059,6.80184 1.41407,7.77735 -4.62622,1.54207 -11.94035,-2.16166 -16.26368,0 -12.53118,6.26559 -27.59603,2.47047 -37.91406,10.17578 -0.23511,2.38256 -0.26709,4.88762 -1.20117,6.7539 -12.09993,24.17602 12.1003,25.83821 28.61328,17.58985 12.5077,-9.5089 28.3485,-11.7538 42.91797,-15.39258 16.30363,-4.07189 39.26422,0.15048 55.02148,3.29883 14.92581,2.98222 33.02941,0 48.42188,0 h 93.53906 c 9.24907,0 24.13318,2.95725 33.01367,0 10.01775,-3.33595 24.21756,-7.69531 35.21486,-7.69531 12.6774,0 79.2328,-21.98922 70.4297,-39.57813 -0.3976,-0.79435 -1.2211,-2.49323 -2.2051,-4.42187 -16.1098,3.34766 -33.2758,10.57043 -40.582,13.00585 -5.4057,1.80192 -11.1535,2.1211 -16.9707,2.1211 -26.03788,0 -52.57963,1.50517 -77.78129,-3.53516 -5.78256,-1.15651 -8.89712,-7.17302 -14.14258,-8.48437 -7.59386,-1.89847 -23.26869,3.9223 -29.69921,0.70703 -3.12409,-1.56204 -5.59576,-4.05225 -9.19141,-4.95117 -3.96011,-0.99003 1.5418,16.11447 -5.6582,11.31445 -1.88342,-1.25561 -6.69489,-2.07729 -7.77735,-4.24219 -2.53553,-5.07106 -3.95209,-11.45277 -9.90039,-13.43554 -1.99634,-0.66545 -6.04957,1.15186 -7.77734,0 -6.25197,-4.16798 -19.98249,-5.38752 -34.95117,-5.25391 z"
           style="opacity:1;vector-effect:none;fill:#d2d2c5;fill-opacity:1;stroke:none;stroke-width:1px;stroke-linecap:butt;stroke-linejoin:miter;stroke-miterlimit:4;stroke-dasharray:none;stroke-dashoffset:0;stroke-opacity:1"
           inkscape:connector-curvature="0" />
      </g>
      <g
         id="g24342"
         style="fill:url(#linearGradient3006)"
         transform="translate(-136.56293,2.8189596)">
        <path
           inkscape:connector-curvature="0"
           id="path24201"
           d="m 466.09145,79.961753 c 11.72142,-1.245238 24.11974,1.114692 35.52196,-1.163505 2.18117,-0.435804 4.42807,-1.630093 6.40561,-2.617891 1.12404,-0.56147 3.16818,-0.267811 4.07629,-0.87263 1.89187,-1.259996 3.63758,-2.072005 5.82328,-2.617894 4.68503,-1.170104 6.11444,-8.59772 6.11444,-12.798581 0,-2.23697 0.0752,-4.616445 -2.32931,-5.817537 -6.13931,-3.066626 -8.39957,-0.902057 -13.6847,2.617891 -0.51958,0.346037 -1.15923,1.54954 -1.74697,1.74526 -0.53717,0.178877 -0.26378,-2.453634 -0.29118,-2.617891 -0.28814,-1.727208 -0.7123,-4.041088 -1.45581,-5.52666 -0.54648,-1.091862 -3.49428,4.23e-4 -4.07629,0.581754 -1.45893,1.457501 -0.80644,4.105761 -0.87351,4.072276 -2.5845,-1.290982 0.50426,-7.198146 -7.8614,-5.526661 -3.09112,0.617615 -1.54473,7.010648 -2.32931,7.271922 -2.55329,0.850257 -5.58062,-6.08418 -10.77306,-3.490522 -6.49266,3.243133 -6.31153,5.920474 -9.02607,11.344197 -0.38823,0.775671 0.38822,2.133097 0,2.908768 -0.79033,1.579092 -5.77695,-1.041209 -7.2791,-0.290875 -1.09749,0.548198 0.0691,3.130585 -0.58233,3.781399 -0.85075,0.849921 -2.47781,-0.09501 -3.49397,0.581752 -0.85981,0.572643 -1.87799,2.588798 -2.3293,3.490521 -2.69251,5.37972 6.73337,4.254117 10.19073,4.944907 z"
           style="fill:#d9e1d9;fill-opacity:1;stroke:none;stroke-width:0.26458335px;stroke-linecap:butt;stroke-linejoin:miter;stroke-opacity:1" />
        <path
           id="path24242"
           transform="matrix(0.26458334,0,0,0.26458334,138.69479,-16.933323)"
           d="m 1417.8789,316.57031 c -3.1805,-0.0287 -6.28,0.27996 -8.8789,0.92969 -8.6129,2.15323 -16.4468,7.36169 -25,9.5 -9.2498,2.31245 -18.9751,3.59502 -28.5,5.5 -2.8846,0.57692 -6.1154,-0.57692 -9,0 -11.2148,2.24295 -22.236,2.5 -34,2.5 -4.7398,0 -12.4349,-1.52171 -17,0 -4.0108,1.33695 -8.1405,2.41011 -12.5,3.5 -3.8338,0.95845 -8.7581,-1.24731 -12.5,0 -1.6362,0.5454 -3.5457,4.52283 -5.5,5.5 -4.0559,2.02796 -9.1499,-6.42507 -13,-4.5 -5.7425,2.87124 9.2033,8 -6.5,8 -7.4789,0 -41.1174,-1.62755 -46,0 -0.3285,0.10951 -0.6186,0.33545 -0.8789,0.62305 -1.1192,2.39912 -1.6009,4.45632 -1.5215,6.20117 1.1147,2.98288 5.2543,6.00559 10.709,8.84766 9.4208,2.2062 22.673,1.66174 29.5957,3.04492 44.3014,-4.70641 91.1609,4.21402 134.2559,-4.39649 8.2437,-1.64713 16.7367,-6.16112 24.2109,-9.89453 4.2483,-2.12209 11.974,-1.0129 15.4062,-3.29883 7.1504,-4.76219 13.7489,-7.83133 22.0098,-9.89453 8.9684,-2.23989 14.7759,-10.54918 18.3281,-20.26562 -4.3767,-0.38601 -17.1574,2.01208 -19.1152,1.0332 -3.7956,-1.89782 -9.3202,-2.88187 -14.6211,-2.92969 z"
           style="opacity:1;vector-effect:none;fill:#d2d2c5;fill-opacity:1;stroke:none;stroke-width:1px;stroke-linecap:butt;stroke-linejoin:miter;stroke-miterlimit:4;stroke-dasharray:none;stroke-dashoffset:0;stroke-opacity:1"
           inkscape:connector-curvature="0" />
      </g>
      <g
         style="fill:url(#linearGradient3008)"
         id="g24352">
        <path
           inkscape:connector-curvature="0"
           id="path24263"
           d="m 363.75577,70.272965 c -0.4162,-6.6e-5 -0.77395,0.02686 -0.89326,0.106316 -2.12947,1.418139 -3.61267,4.965275 -4.69753,7.132676 -1.944,3.883888 -5.3531,7.591592 -6.20073,11.825226 -0.28758,1.43639 0.0208,3.118083 -0.3758,4.504848 -0.27381,0.957312 -0.42198,0.464472 -0.5637,1.313914 -0.0584,0.350117 0.15759,1.186768 0,1.501616 -0.0278,0.05557 -1.21446,-1.15979 -1.87901,-0.93851 -1.69443,0.56421 -0.25397,2.693833 -1.12741,3.566338 -0.36133,0.360949 -3.22272,-0.428511 -3.94592,-0.187702 -1.92864,0.6422 -4.36225,1.468503 -5.63703,3.378633 -1.54704,2.31811 -1.84453,4.96087 -1.69111,7.69578 l 0.12331,0.1877 h 86.71081 c -0.26305,-2.14897 -1.7866,-5.21103 -2.27868,-6.19416 -0.0924,-0.18454 -2.81596,-1.97023 -3.19432,-2.06472 -1.60525,-0.40089 -7.04602,0.70401 -7.70394,0.3754 -1.67795,-0.83809 -2.38592,-3.234592 -5.07332,-4.129441 -2.44149,-0.812969 -6.37338,-1.599277 -9.01925,-0.93851 -0.82114,0.205068 -3.95458,1.808689 -4.69752,1.313914 -0.36288,-0.241666 -1.93707,-1.87702 -2.25481,-1.87702 -0.32496,0 -0.7297,0.386347 -1.12741,0.187702 -0.92765,-0.463335 -0.13452,-1.791274 -1.50321,-2.064722 -1.01256,-0.2023 -1.739,1.44273 -2.25481,1.313914 -1.41399,-0.353124 -5.06174,-8.564823 -5.26123,-9.760504 -0.22222,-1.331892 -0.74963,-6.190898 -1.3153,-7.132676 -1.24694,-2.076027 -2.45427,-3.903473 -4.50963,-5.443358 -0.89093,-0.667496 -2.11802,-0.603957 -3.00641,-1.313914 -1.20433,-0.962448 -3.33043,-1.993532 -4.88543,-2.252424 -0.18736,-0.03119 -1.04367,-0.106204 -1.73735,-0.106316 z"
           style="opacity:1;vector-effect:none;fill:#98b4bb;fill-opacity:1;stroke:none;stroke-width:0.26458335px;stroke-linecap:butt;stroke-linejoin:miter;stroke-miterlimit:4;stroke-dasharray:none;stroke-dashoffset:0;stroke-opacity:1" />
        <path
           inkscape:connector-curvature="0"
           id="path24283"
           d="m 340.12939,99.961801 c 0.37319,-1.004864 1.24853,-0.845746 1.9933,-1.218131 0.8131,-0.406548 4.00183,0.996653 4.98326,0.996653 0.16691,0 0.11466,-2.554843 0.22148,-2.768481 0.77948,-1.558964 1.50014,-0.583959 2.547,-1.107389 0.60969,-0.304845 1.18897,-2.506216 2.21479,-1.993308 2.05319,1.026599 2.28939,3.999437 3.76513,4.983263 0.54026,0.360175 -0.22049,-2.214454 0.77518,-1.882566 0.70401,0.234673 0.48022,1.292135 0.77517,1.439612 0.3374,0.168698 0.33721,-0.505823 0.44296,-0.664435 0.39549,-0.593239 0.39238,0.784775 0.55369,1.107389 0.10756,0.21512 0.61553,-0.697039 0.99665,-0.442954 0.24228,0.161517 0.43824,1.328869 0.77518,1.328869 0.54072,0 0.60692,-0.794345 1.32887,-0.553696 0.34361,0.114536 0.80108,1.328873 0.88591,1.328873 0.34177,0 1.08503,-1.072044 2.10405,-0.664438 1.03915,0.415658 1.97576,2.910288 2.547,3.100698 0.009,0.003 0.85441,-1.30906 1.66108,-1.10739 0.66068,0.16517 0.82372,1.12357 1.43962,1.32887 0.51903,0.17301 0.66439,-1.35104 1.55034,-0.99665 0.46195,0.18477 0.88242,1.07164 1.43961,0.88591 1.70583,-0.56861 0.0554,-4.50339 3.6544,-2.10405 0.97899,0.65267 1.02867,-0.29286 1.77183,-0.66443 0.32483,-0.16242 0.89329,0.16242 1.21813,0 0.8167,-0.408353 1.47876,-1.348449 2.32552,-1.771828 0.44852,-0.224261 0.89536,-0.558416 1.32887,-0.775173 0.43802,-0.219014 1.06009,-0.08709 1.55035,-0.332219 0.11663,-0.05832 0.27246,-0.357712 0.44295,-0.442958 0.8807,-0.440348 2.34162,0.324171 3.21144,-0.110738 0.59792,-0.298958 1.73591,-0.787146 2.43626,-0.553697 0.8338,0.277932 1.1996,1.421078 1.77183,1.993308 0.76217,0.762164 1.26763,2.177015 0.88591,3.322175 -0.31351,0.94055 -1.08135,1.16605 -1.21813,1.43961 -0.0952,0.19041 -0.40108,0.61651 -0.22148,0.88591 0.0384,0.0575 0.29546,0.18427 0.22148,0.33222 -0.37406,0.74813 -1.06655,0.58864 -1.66108,0.88591 -0.32121,0.16061 -0.11573,0.44794 -0.33222,0.66444 -0.52347,0.52347 -2.31489,1.21458 -2.98996,1.43961 -1.62843,0.54281 -3.52606,0.0233 -5.20474,0.44295 -5.44148,1.36037 -11.5691,0.90264 -17.05384,-0.66443 -0.71267,-0.20362 -1.46739,-0.23537 -2.10404,-0.5537 -0.17719,-0.0886 -0.48726,0.0886 -0.66444,0 -0.42024,-0.21012 -1.05727,-0.11074 -1.55035,-0.11074 -2.26346,0 -4.15815,-0.15489 -5.53696,-1.9933 -0.22489,-0.29986 -1.71677,-0.47624 -2.10404,-0.5537 -0.52421,-0.10484 -1.11367,-0.44609 -1.55035,-0.66443 -0.5752,-0.2876 -2.83426,0.63155 -3.65439,0.22148 -0.36595,-0.18298 -0.97012,-0.93168 -1.43961,-0.77518 -0.8916,0.2972 -2.08514,-0.19087 -2.98996,0.11074 -0.5527,0.18423 -1.19735,0.3622 -1.77183,0.5537 -0.32018,0.10673 -1.23935,-0.007 -1.55035,-0.11074 -1.8248,-0.60827 -1.51309,-2.24273 -0.22147,-3.211439 z"
           style="opacity:1;vector-effect:none;fill:#79b1a5;fill-opacity:1;stroke:none;stroke-width:0.26458335px;stroke-linecap:butt;stroke-linejoin:miter;stroke-miterlimit:4;stroke-dasharray:none;stroke-dashoffset:0;stroke-opacity:1" />
        <path
           inkscape:connector-curvature="0"
           id="path24299"
           d="m 396.60637,103.72693 c 1.07344,-0.10611 0.15426,-1.06258 0.88591,-1.55034 0.55584,-0.37057 1.25875,0.47801 1.77183,0.22147 0.3182,-0.1591 0.51494,-0.8084 0.66443,-1.10739 0.2294,-0.4588 0.79359,-0.0184 1.1074,-0.33222 0.35163,-0.35163 0.43432,-0.77517 0.99665,-0.77517 0.57253,0 1.59386,0.20408 2.10403,0 1.04511,-0.418038 1.14308,-1.328872 2.32553,-1.328872 0.62429,0 1.0482,0.745575 1.55035,0.996654 0.56611,0.283048 1.60822,-0.515117 1.88257,-0.332219 0.21235,0.141571 0.82984,1.218127 0.99666,1.218127 1.15049,0 0.60809,0.35943 1.4396,0.77518 0.23214,0.11608 0.63005,-0.064 0.88593,0 0.40089,0.10023 1.45335,0.92064 1.10738,1.43961 -0.62769,0.94153 -1.80771,0.39306 -2.54701,0.88591 -0.54967,0.36645 -1.39067,1.19368 -1.88256,1.43961 -0.8717,0.43585 -4.6436,-0.13437 -5.86917,0.11074 -0.16193,0.0324 -0.39431,0.25253 -0.5537,0.33222 -0.0343,0.0172 -5.45476,-0.29112 -5.53696,-0.33222 -0.67061,-0.3353 -0.88711,-1.07207 -1.32887,-1.66109 z"
           style="opacity:1;vector-effect:none;fill:#79b1a5;fill-opacity:1;stroke:none;stroke-width:0.26458335px;stroke-linecap:butt;stroke-linejoin:miter;stroke-miterlimit:4;stroke-dasharray:none;stroke-dashoffset:0;stroke-opacity:1" />
        <path
           id="path24306"
           transform="matrix(0.26458334,0,0,0.26458334,138.69479,-16.933323)"
           d="m 752.56836,455.57031 c -0.0227,2.6e-4 -0.0475,0.003 -0.0703,0.004 -3.72245,7.68024 -4.4527,16.12759 -3.96485,24.82422 L 749,481.10742 h 327.7246 c -0.5853,-4.78199 -2.8192,-10.73104 -4.9394,-15.59765 -13.0038,-0.20912 -23.8328,7.68945 -41.336,7.68945 -3.226,0 -13.2513,1.74447 -15.9043,0.41797 -2.2034,-1.1017 -4.4615,-1.64948 -7.1152,-2.0918 -4.0076,-0.66792 -11.03386,1.8073 -14.64845,0 -2.33186,-1.16591 -3.88078,-3.38671 -6.27734,-4.18555 -2.48274,-0.8276 -8.53909,0.91793 -10.04493,-2.09375 -1.35125,-2.70255 -6.55556,-8.64993 -10.46484,-6.69531 -2.25173,1.12588 -2.02513,4.88624 -2.92969,6.69531 -0.83554,1.67108 -11.44816,9.5588 -13.39257,10.04493 -15.07654,3.76913 -32.39396,1.25586 -48.13282,1.25586 -4.5256,-10e-6 -7.88904,0.82392 -12.13867,1.67382 -3.42482,0.68497 -18.52378,-2.14667 -20.92578,-3.34765 -1.1822,-0.59127 -2.95478,0.19741 -4.18555,-0.41797 -4.64198,-2.32101 -17.13537,2.31413 -21.76367,0 -2.68422,-1.34211 -8.36467,-1.52956 -10.46484,-2.92969 -1.06398,-0.7093 -2.44895,-1.76455 -3.76563,-2.09375 -4.5256,-1.1314 -8.08924,0.23393 -13.8125,-1.67383 -4.64583,-1.54858 -10.84053,1.54863 -15.48633,0 -2.09193,-0.69732 -4.09338,-1.5458 -6.27734,-2.09179 -1.67694,-0.41927 -3.80703,0.54478 -5.44141,0 -1.60747,-0.53583 -2.57573,-1.55714 -4.18554,-2.09375 -2.28854,-0.76302 -5.59584,-0.2466 -7.95313,-0.83594 -1.83496,-0.45876 -3.37366,0.83594 -4.60351,0.83594 -1.17714,0 -1.4722,-1.99196 -2.51172,-2.51172 -0.33411,-0.16706 -3.68989,3.59644 -5.85938,2.51172 -1.49578,-0.7479 -4.43699,-2.00846 -5.4414,-3.34766 -0.92349,-1.23133 -0.006,-3.35182 -1.67383,-4.18555 -0.72184,-0.36091 -1.56737,-0.47911 -2.48047,-0.46875 z"
           style="opacity:1;vector-effect:none;fill:#b3c1ae;fill-opacity:1;stroke:none;stroke-width:1px;stroke-linecap:butt;stroke-linejoin:miter;stroke-miterlimit:4;stroke-dasharray:none;stroke-dashoffset:0;stroke-opacity:1"
           inkscape:connector-curvature="0" />
        <path
           inkscape:connector-curvature="0"
           id="path24327"
           d="m 355.67638,84.705833 c -0.009,-0.623629 0.36864,-1.140259 0.70474,-1.644394 0.31053,-0.465807 0.68983,-1.286462 0.86135,-1.801003 0.21819,-0.654589 1.04137,-1.166521 1.25287,-1.801003 0.062,-0.186081 -0.0927,-0.142216 0.0783,-0.313216 0.11305,-0.113054 1.26899,0.04683 1.64439,-0.0783 0.34484,-0.114949 1.95515,-1.017958 2.19253,-1.017958 0.10223,0 0.36462,0.338918 0.46982,0.391522 0.10464,0.05232 0.25446,-0.01966 0.31322,0.156607 0.34824,1.044726 -0.24925,2.371217 -0.39152,3.367093 -0.19908,1.393536 -0.36825,2.725864 -0.70474,4.071829 -0.10615,0.424617 0.008,0.900967 -0.0783,1.331174 -0.12158,0.607857 -0.31322,1.178992 -0.31322,1.801003 0,0.432737 -0.48344,4.698267 -0.78305,4.698267 -0.52416,0 -0.59,-3.299653 -0.70474,-3.758612 -0.1349,-0.539589 -0.23213,-1.012394 -0.46982,-1.487787 -0.11329,-0.226573 0.044,-0.616799 -0.0783,-0.861348 -0.0692,-0.138425 -0.90007,-0.723665 -1.09626,-1.017958 -0.14687,-0.220308 -0.11056,-0.720868 -0.39152,-0.861349 -0.26483,-0.132413 -0.59742,-0.02463 -0.86135,-0.156606 -0.11207,-0.05604 -0.11276,-0.2216 -0.23491,-0.31322 -0.42213,-0.316592 -0.92709,-0.463539 -1.40948,-0.704738 z"
           style="opacity:1;vector-effect:none;fill:#7e9da5;fill-opacity:0.48351668;stroke:none;stroke-width:0.26458335px;stroke-linecap:butt;stroke-linejoin:miter;stroke-miterlimit:4;stroke-dasharray:none;stroke-dashoffset:0;stroke-opacity:1" />
        <path
           inkscape:connector-curvature="0"
           id="path24329"
           d="m 372.82505,75.074385 c -0.54968,0.150437 -1.26103,-0.179991 -1.801,0 -0.30312,0.101039 -0.20901,0.530858 -0.46983,0.704742 -0.31509,0.210058 -0.77315,-0.254715 -1.01796,0.234913 -0.20907,0.418145 0,6.717691 0,7.517225 0,0.600334 0,1.200669 0,1.801003 0,0.05836 0.11957,0.115337 0.0783,0.156607 -0.23028,0.23028 -1.62519,-0.821441 -1.8793,-0.313216 -0.058,0.115953 0.0312,0.345162 0,0.469825 -0.0944,0.377736 -0.56755,0.684687 -0.70474,1.096262 -0.2732,0.819608 0,4.493077 0,5.559615 0,1.125813 0.0187,4.657331 0.46983,5.559616 0.0791,0.1582 -0.0467,-0.549704 0.0783,-1.174567 0.15972,-0.79859 0.28776,-1.519069 0.39152,-2.349133 0.20952,-1.676132 0.68918,-3.226538 1.09626,-4.854874 0.57328,-2.293109 1.66791,-0.781103 3.13218,-1.879306 0.55668,-0.41751 0.18855,-1.395058 0.46983,-1.957613 0.0932,-0.186338 1.13109,-0.369784 1.33117,-0.469825 0.40153,-0.200764 1.14041,-1.027944 1.33118,-1.409481 1.08356,-2.16712 0.9865,-3.508301 -0.0783,-5.637919 -0.76726,-1.534522 -0.95087,-1.94645 -2.42743,-3.053874 z"
           style="opacity:1;vector-effect:none;fill:#7e9da5;fill-opacity:0.48351668;stroke:none;stroke-width:0.26458335px;stroke-linecap:butt;stroke-linejoin:miter;stroke-miterlimit:4;stroke-dasharray:none;stroke-dashoffset:0;stroke-opacity:1" />
      </g>
      <path
         inkscape:connector-curvature="0"
         style="opacity:1;vector-effect:none;fill:#c9dbdf;fill-opacity:1;stroke:none;stroke-width:0.26458335px;stroke-linecap:butt;stroke-linejoin:miter;stroke-miterlimit:4;stroke-dasharray:none;stroke-dashoffset:0;stroke-opacity:1"
         d="m 426.48394,106.89995 c -0.48006,-0.0168 -0.89662,0.0555 -1.19475,0.27905 0.69958,-0.0827 4.23138,0.47674 4.38475,0.78342 0.31026,0.6205 -1.98511,1.29867 -2.42726,1.40921 -0.031,0.008 -0.87471,0.14331 -0.78287,0.23513 0.21288,0.2129 4.19692,-0.72082 4.85447,-0.94 0.23773,-0.0793 0.22709,-0.24892 0.54829,-0.31316 0.0595,-0.0119 0.39169,0.0447 0.39169,-0.078 0,-0.51157 -0.91276,-0.46973 -1.25314,-0.46973 -1.07247,0 -3.08094,-0.85548 -4.52118,-0.90589 z m -92.45895,0.88056 c -0.62389,-0.007 -1.14321,0.31344 -1.76165,0.41651 -0.25419,0.0424 -0.9578,0.20549 -1.61644,0.45838 1.50739,-0.0422 2.96257,-0.15965 3.65249,-0.84956 -0.094,-0.0161 -0.18527,-0.0243 -0.2744,-0.0253 z m -3.37809,0.87489 c -2.18496,0.0611 -4.48116,-0.0399 -4.72632,1.18597 -0.0307,0.15348 -0.0576,0.53608 0.0786,0.62684 0.66226,0.44151 3.4098,0.15658 4.30671,0.15658 h 2.11408 c -0.38506,0 -2.92839,-0.37545 -3.05408,-0.62684 -0.286,-0.572 0.46227,-1.02817 1.28106,-1.34255 z m 1.77302,1.96939 c 0.23491,0 0.70487,0.23491 0.70487,0 0,-0.23492 -0.46996,0 -0.70487,0 z m 88.17085,0.62631 c -2.40884,0 -4.80809,0.15658 -7.20421,0.15658 h -4.69791 c -0.25464,1.01853 1.65272,0.62632 2.34921,0.62632 1.64277,0 3.55317,0.26908 5.16765,0 0.26885,-0.0448 0.50824,-0.15658 0.78341,-0.15658 1.11903,0 3.10713,0.26076 4.15015,0 0.83449,-0.20862 1.59118,-0.31316 2.50579,-0.31316 0.39587,0 1.53302,0.16668 1.80091,-0.23513 0.0175,-0.0262 -1.372,-0.078 -1.48775,-0.078 z m -40.11486,0.14211 c -0.81688,-0.002 -1.67831,0.0145 -1.85622,0.0145 h -12.29383 c -0.51019,1.02041 1.32094,0.7829 1.95751,0.7829 h 10.64948 c 0.25796,0 3.13211,-0.51385 3.13211,-0.70487 0,-0.0714 -0.77218,-0.0908 -1.58905,-0.0925 z m -41.14943,0.30593 c -0.59641,0.0123 -1.18482,0.0711 -1.7384,0.25683 -0.29824,0.59647 0.23588,0.62632 0.70487,0.62632 h 6.18567 c 0.26099,0 1.25029,0.1623 1.40973,-0.15658 0.071,-0.14189 -2.31565,-0.41541 -2.50579,-0.46974 -0.68303,-0.19515 -1.55883,-0.23513 -2.27066,-0.23513 -0.58448,0 -1.18901,-0.034 -1.78542,-0.0217 z m -20.79098,0.001 c -1.30662,0.32665 -1.49916,1.21801 0.11059,1.21801 1.80769,0 4.1912,0.33806 5.86889,-0.22118 1.97546,-0.65848 -1.56666,-0.99683 -1.88257,-0.99683 h -1.66089 z m 69.4738,0.5829 c -0.35812,5.3e-4 -0.77618,0.0855 -0.77618,0.37724 0,0.14729 1.98834,0.27125 2.11408,0.31316 0.55099,0.18367 7.07836,0.50469 7.36079,0.39171 0.28828,-0.11531 0.43583,-0.23461 0.7829,-0.23461 0.32747,0 2.42724,-0.12629 2.42724,-0.62684 0,-0.15243 -1.34703,-0.078 -1.48777,-0.078 -3.3079,0 -6.62643,-0.15939 -9.94461,-0.0786 -0.0686,-0.0343 -0.26158,-0.0644 -0.47645,-0.0641 z"
         id="path24364" />
      <g
         transform="matrix(0.64532896,0,0,0.64532896,209.45016,185.68641)"
         id="g24488"
         style="fill:url(#linearGradient3010);stroke-width:1.54959726">
        <path
           inkscape:connector-curvature="0"
           id="path24455"
           d="m 385.2607,-110.4484 c 0,0 7.57146,0.35237 9.71434,-0.0783 -1.61905,1.09627 -3.61905,1.17457 -5.47621,1.21372 -1.85714,0.0391 -4.04765,-0.54813 -4.23813,-1.13541 z"
           style="opacity:1;vector-effect:none;fill:#6d717d;fill-opacity:1;stroke:none;stroke-width:0.40999764px;stroke-linecap:butt;stroke-linejoin:miter;stroke-miterlimit:4;stroke-dasharray:none;stroke-dashoffset:0;stroke-opacity:1" />
        <path
           inkscape:connector-curvature="0"
           id="path24459"
           d="m 388.38998,-111.38805 -0.27405,1.68354 h 0.54813 l 0.58727,-1.68354 1.60526,-0.23492 0.62642,2.03592 0.86135,-0.11746 -0.62642,-2.30998 z"
           style="opacity:1;vector-effect:none;fill:#6d717d;fill-opacity:1;stroke:none;stroke-width:0.40999764px;stroke-linecap:butt;stroke-linejoin:miter;stroke-miterlimit:4;stroke-dasharray:none;stroke-dashoffset:0;stroke-opacity:1" />
        <path
           inkscape:connector-curvature="0"
           id="path24457"
           d="m 386.58899,-110.80077 c 0,0 3.79778,-0.50898 6.1469,-1.01796 0.8222,-3.602 -3.83693,-9.00501 -3.83693,-9.00501 0,0 -0.62643,8.96586 -2.30997,10.02297 z"
           style="opacity:1;vector-effect:none;fill:#e5e5ae;fill-opacity:1;stroke:none;stroke-width:0.40999764px;stroke-linecap:butt;stroke-linejoin:miter;stroke-miterlimit:4;stroke-dasharray:none;stroke-dashoffset:0;stroke-opacity:1" />
      </g>
      <g
         style="fill:url(#linearGradient3012);stroke-width:2.69349408"
         id="g24528"
         transform="matrix(0.37126497,0,0,0.37126497,298.71902,149.79277)">
        <path
           style="opacity:1;vector-effect:none;fill:#6d717d;fill-opacity:1;stroke:none;stroke-width:0.7126537px;stroke-linecap:butt;stroke-linejoin:miter;stroke-miterlimit:4;stroke-dasharray:none;stroke-dashoffset:0;stroke-opacity:1"
           d="m 385.2607,-110.4484 c 0,0 7.57146,0.35237 9.71434,-0.0783 -1.61905,1.09627 -3.61905,1.17457 -5.47621,1.21372 -1.85714,0.0391 -4.04765,-0.54813 -4.23813,-1.13541 z"
           id="path24522"
           inkscape:connector-curvature="0" />
        <path
           style="opacity:1;vector-effect:none;fill:#6d717d;fill-opacity:1;stroke:none;stroke-width:0.7126537px;stroke-linecap:butt;stroke-linejoin:miter;stroke-miterlimit:4;stroke-dasharray:none;stroke-dashoffset:0;stroke-opacity:1"
           d="m 388.38998,-111.38805 -0.27405,1.68354 h 0.54813 l 0.58727,-1.68354 1.60526,-0.23492 0.62642,2.03592 0.86135,-0.11746 -0.62642,-2.30998 z"
           id="path24524"
           inkscape:connector-curvature="0" />
        <path
           style="opacity:1;vector-effect:none;fill:#d9e1d9;fill-opacity:1;stroke:none;stroke-width:0.7126537px;stroke-linecap:butt;stroke-linejoin:miter;stroke-miterlimit:4;stroke-dasharray:none;stroke-dashoffset:0;stroke-opacity:1"
           d="m 386.58899,-110.80077 c 0,0 3.79778,-0.50898 6.1469,-1.01796 0.8222,-3.602 -3.83693,-9.00501 -3.83693,-9.00501 0,0 -0.62643,8.96586 -2.30997,10.02297 z"
           id="path24526"
           inkscape:connector-curvature="0" />
      </g>
      <g
         style="fill:url(#linearGradient3014);stroke-width:1.00098765"
         id="g24562"
         transform="matrix(0.99901335,0,0,0.99901335,50.141094,235.1652)">
        <path
           style="opacity:1;vector-effect:none;fill:#6d717d;fill-opacity:1;stroke:none;stroke-width:0.26484466px;stroke-linecap:butt;stroke-linejoin:miter;stroke-miterlimit:4;stroke-dasharray:none;stroke-dashoffset:0;stroke-opacity:1"
           d="m 385.2607,-110.4484 c 0,0 7.57146,0.35237 9.71434,-0.0783 -1.61905,1.09627 -3.61905,1.17457 -5.47621,1.21372 -1.85714,0.0391 -4.04765,-0.54813 -4.23813,-1.13541 z"
           id="path24556"
           inkscape:connector-curvature="0" />
        <path
           style="opacity:1;vector-effect:none;fill:#6d717d;fill-opacity:1;stroke:none;stroke-width:0.26484466px;stroke-linecap:butt;stroke-linejoin:miter;stroke-miterlimit:4;stroke-dasharray:none;stroke-dashoffset:0;stroke-opacity:1"
           d="m 388.38998,-111.38805 -0.27405,1.68354 h 0.54813 l 0.58727,-1.68354 1.60526,-0.23492 0.62642,2.03592 0.86135,-0.11746 -0.62642,-2.30998 z"
           id="path24558"
           inkscape:connector-curvature="0" />
        <path
           style="opacity:1;vector-effect:none;fill:#ebf2eb;fill-opacity:1;stroke:none;stroke-width:0.26484466px;stroke-linecap:butt;stroke-linejoin:miter;stroke-miterlimit:4;stroke-dasharray:none;stroke-dashoffset:0;stroke-opacity:1"
           d="m 386.58899,-110.80077 c 0,0 3.79778,-0.50898 6.1469,-1.01796 0.8222,-3.602 -3.83693,-9.00501 -3.83693,-9.00501 0,0 -0.62643,8.96586 -2.30997,10.02297 z"
           id="path24560"
           inkscape:connector-curvature="0" />
      </g>
      <g
         style="fill:url(#linearGradient3016);stroke-width:2.69349408"
         id="g24586"
         transform="matrix(0.37126497,0,0,0.37126497,345.85828,151.9853)">
        <path
           style="opacity:1;vector-effect:none;fill:#6d717d;fill-opacity:1;stroke:none;stroke-width:0.7126537px;stroke-linecap:butt;stroke-linejoin:miter;stroke-miterlimit:4;stroke-dasharray:none;stroke-dashoffset:0;stroke-opacity:1"
           d="m 385.2607,-110.4484 c 0,0 7.57146,0.35237 9.71434,-0.0783 -1.61905,1.09627 -3.61905,1.17457 -5.47621,1.21372 -1.85714,0.0391 -4.04765,-0.54813 -4.23813,-1.13541 z"
           id="path24580"
           inkscape:connector-curvature="0" />
        <path
           style="opacity:1;vector-effect:none;fill:#6d717d;fill-opacity:1;stroke:none;stroke-width:0.7126537px;stroke-linecap:butt;stroke-linejoin:miter;stroke-miterlimit:4;stroke-dasharray:none;stroke-dashoffset:0;stroke-opacity:1"
           d="m 388.38998,-111.38805 -0.27405,1.68354 h 0.54813 l 0.58727,-1.68354 1.60526,-0.23492 0.62642,2.03592 0.86135,-0.11746 -0.62642,-2.30998 z"
           id="path24582"
           inkscape:connector-curvature="0" />
        <path
           style="opacity:1;vector-effect:none;fill:#d9e1d9;fill-opacity:1;stroke:none;stroke-width:0.7126537px;stroke-linecap:butt;stroke-linejoin:miter;stroke-miterlimit:4;stroke-dasharray:none;stroke-dashoffset:0;stroke-opacity:1"
           d="m 386.58899,-110.80077 c 0,0 3.79778,-0.50898 6.1469,-1.01796 0.8222,-3.602 -3.83693,-9.00501 -3.83693,-9.00501 0,0 -0.62643,8.96586 -2.30997,10.02297 z"
           id="path24584"
           inkscape:connector-curvature="0" />
      </g>
      <g
         style="fill:url(#linearGradient3018);stroke-width:1.54959726"
         id="g26933"
         transform="matrix(0.64532896,0,0,0.64532896,81.787067,184.10458)">
        <path
           style="opacity:1;vector-effect:none;fill:#6d717d;fill-opacity:1;stroke:none;stroke-width:0.40999764px;stroke-linecap:butt;stroke-linejoin:miter;stroke-miterlimit:4;stroke-dasharray:none;stroke-dashoffset:0;stroke-opacity:1"
           d="m 385.2607,-110.4484 c 0,0 7.57146,0.35237 9.71434,-0.0783 -1.61905,1.09627 -3.61905,1.17457 -5.47621,1.21372 -1.85714,0.0391 -4.04765,-0.54813 -4.23813,-1.13541 z"
           id="path26927"
           inkscape:connector-curvature="0" />
        <path
           style="opacity:1;vector-effect:none;fill:#6d717d;fill-opacity:1;stroke:none;stroke-width:0.40999764px;stroke-linecap:butt;stroke-linejoin:miter;stroke-miterlimit:4;stroke-dasharray:none;stroke-dashoffset:0;stroke-opacity:1"
           d="m 388.38998,-111.38805 -0.27405,1.68354 h 0.54813 l 0.58727,-1.68354 1.60526,-0.23492 0.62642,2.03592 0.86135,-0.11746 -0.62642,-2.30998 z"
           id="path26929"
           inkscape:connector-curvature="0" />
        <path
           style="opacity:1;vector-effect:none;fill:#e5e5ae;fill-opacity:1;stroke:none;stroke-width:0.40999764px;stroke-linecap:butt;stroke-linejoin:miter;stroke-miterlimit:4;stroke-dasharray:none;stroke-dashoffset:0;stroke-opacity:1"
           d="m 386.58899,-110.80077 c 0,0 3.79778,-0.50898 6.1469,-1.01796 0.8222,-3.602 -3.83693,-9.00501 -3.83693,-9.00501 0,0 -0.62643,8.96586 -2.30997,10.02297 z"
           id="path26931"
           inkscape:connector-curvature="0" />
      </g>
    </g>
  </g>
</svg>
