<?xml version="1.0" encoding="UTF-8" standalone="no"?>
<!-- Created with Inkscape (http://www.inkscape.org/) -->

<svg
   xmlns:dc="http://purl.org/dc/elements/1.1/"
   xmlns:cc="http://creativecommons.org/ns#"
   xmlns:rdf="http://www.w3.org/1999/02/22-rdf-syntax-ns#"
   xmlns:svg="http://www.w3.org/2000/svg"
   xmlns="http://www.w3.org/2000/svg"
   xmlns:xlink="http://www.w3.org/1999/xlink"
   xmlns:sodipodi="http://sodipodi.sourceforge.net/DTD/sodipodi-0.dtd"
   xmlns:inkscape="http://www.inkscape.org/namespaces/inkscape"
   width="1024"
   height="640"
   viewBox="0 0 270.93333 169.33334"
   version="1.1"
   id="svg17491"
   inkscape:version="0.92.4 (f8dce91, 2019-08-02)"
   sodipodi:docname="bg.svg"
   inkscape:export-filename="/home/hamdi/MY_FILES/works-marketplace/tileset-swamp/upload/png1x/bg/bg.png"
   inkscape:export-xdpi="96.000008"
   inkscape:export-ydpi="96.000008">
  <defs
     id="defs17485">
    <clipPath
       clipPathUnits="userSpaceOnUse"
       id="clipPath17274">
      <rect
         style="opacity:1;vector-effect:none;fill:#729580;fill-opacity:1;stroke:none;stroke-width:0.70194983px;stroke-linecap:butt;stroke-linejoin:miter;stroke-miterlimit:4;stroke-dasharray:none;stroke-dashoffset:0;stroke-opacity:1;paint-order:normal"
         id="rect17276"
         width="270.93335"
         height="169.33334"
         x="274.30505"
         y="35.984901" />
    </clipPath>
    <clipPath
       clipPathUnits="userSpaceOnUse"
       id="clipPath37796">
      <rect
         transform="translate(-4.7050103e-6)"
         style="opacity:1;vector-effect:none;fill:#9bbbcd;fill-opacity:1;stroke:none;stroke-width:1.54174387;stroke-linecap:butt;stroke-linejoin:miter;stroke-miterlimit:4;stroke-dasharray:none;stroke-dashoffset:0;stroke-opacity:1;paint-order:normal"
         id="rect37798"
         width="270.93335"
         height="169.33333"
         x="308.02814"
         y="7.3779297e-06"
         clip-path="url(#clipPath37755-8)" />
    </clipPath>
    <clipPath
       clipPathUnits="userSpaceOnUse"
       id="clipPath37755-3">
      <rect
         style="opacity:1;vector-effect:none;fill:#12222b;fill-opacity:0.68911917;stroke:none;stroke-width:1.54174387;stroke-linecap:butt;stroke-linejoin:miter;stroke-miterlimit:4;stroke-dasharray:none;stroke-dashoffset:0;stroke-opacity:1;paint-order:normal"
         id="rect37757-8"
         width="270.93335"
         height="169.33333"
         x="308.02814"
         y="7.9375004e-06" />
    </clipPath>
    <clipPath
       clipPathUnits="userSpaceOnUse"
       id="clipPath37796-4">
      <rect
         transform="translate(-4.7050103e-6)"
         style="opacity:1;vector-effect:none;fill:#9bbbcd;fill-opacity:1;stroke:none;stroke-width:1.54174387;stroke-linecap:butt;stroke-linejoin:miter;stroke-miterlimit:4;stroke-dasharray:none;stroke-dashoffset:0;stroke-opacity:1;paint-order:normal"
         id="rect37798-9"
         width="270.93335"
         height="169.33333"
         x="308.02814"
         y="7.3779297e-06"
         clip-path="url(#clipPath37755-8)" />
    </clipPath>
    <clipPath
       clipPathUnits="userSpaceOnUse"
       id="clipPath37755-3-2">
      <rect
         style="opacity:1;vector-effect:none;fill:#12222b;fill-opacity:0.68911917;stroke:none;stroke-width:1.54174387;stroke-linecap:butt;stroke-linejoin:miter;stroke-miterlimit:4;stroke-dasharray:none;stroke-dashoffset:0;stroke-opacity:1;paint-order:normal"
         id="rect37757-8-5"
         width="270.93335"
         height="169.33333"
         x="308.02814"
         y="7.9375004e-06" />
    </clipPath>
    <clipPath
       clipPathUnits="userSpaceOnUse"
       id="clipPath37796-4-7">
      <rect
         transform="translate(-4.7050103e-6)"
         style="opacity:1;vector-effect:none;fill:#9bbbcd;fill-opacity:1;stroke:none;stroke-width:1.54174387;stroke-linecap:butt;stroke-linejoin:miter;stroke-miterlimit:4;stroke-dasharray:none;stroke-dashoffset:0;stroke-opacity:1;paint-order:normal"
         id="rect37798-9-8"
         width="270.93335"
         height="169.33333"
         x="308.02814"
         y="7.3779297e-06"
         clip-path="url(#clipPath37755-8)" />
    </clipPath>
    <linearGradient
       inkscape:collect="always"
       id="linearGradient19621">
      <stop
         style="stop-color:#b9c5c9;stop-opacity:1"
         offset="0"
         id="stop19617" />
      <stop
         style="stop-color:#ece4e0;stop-opacity:1"
         offset="1"
         id="stop19619" />
    </linearGradient>
    <clipPath
       clipPathUnits="userSpaceOnUse"
       id="clipPath37755-3-2-4">
      <rect
         style="opacity:1;vector-effect:none;fill:#12222b;fill-opacity:0.68911917;stroke:none;stroke-width:1.54174387;stroke-linecap:butt;stroke-linejoin:miter;stroke-miterlimit:4;stroke-dasharray:none;stroke-dashoffset:0;stroke-opacity:1;paint-order:normal"
         id="rect37757-8-5-5"
         width="270.93335"
         height="169.33333"
         x="308.02814"
         y="7.9375004e-06" />
    </clipPath>
    <clipPath
       clipPathUnits="userSpaceOnUse"
       id="clipPath37796-4-7-5">
      <rect
         transform="translate(-4.7050103e-6)"
         style="opacity:1;vector-effect:none;fill:#9bbbcd;fill-opacity:1;stroke:none;stroke-width:1.54174387;stroke-linecap:butt;stroke-linejoin:miter;stroke-miterlimit:4;stroke-dasharray:none;stroke-dashoffset:0;stroke-opacity:1;paint-order:normal"
         id="rect37798-9-8-0"
         width="270.93335"
         height="169.33333"
         x="308.02814"
         y="7.3779297e-06"
         clip-path="url(#clipPath37755-8)" />
    </clipPath>
    <linearGradient
       inkscape:collect="always"
       xlink:href="#linearGradient19621"
       id="linearGradient2387"
       gradientUnits="userSpaceOnUse"
       x1="449.27835"
       y1="17.649454"
       x2="449.27835"
       y2="67.45253" />
    <clipPath
       clipPathUnits="userSpaceOnUse"
       id="clipPath37755-3-2-4-3">
      <rect
         style="opacity:1;vector-effect:none;fill:#12222b;fill-opacity:0.68911917;stroke:none;stroke-width:1.54174387;stroke-linecap:butt;stroke-linejoin:miter;stroke-miterlimit:4;stroke-dasharray:none;stroke-dashoffset:0;stroke-opacity:1;paint-order:normal"
         id="rect37757-8-5-5-6"
         width="270.93335"
         height="169.33333"
         x="308.02814"
         y="7.9375004e-06" />
    </clipPath>
    <clipPath
       clipPathUnits="userSpaceOnUse"
       id="clipPath2041">
      <rect
         transform="translate(-4.7050103e-6)"
         style="opacity:1;vector-effect:none;fill:#9bbbcd;fill-opacity:1;stroke:none;stroke-width:1.54174387;stroke-linecap:butt;stroke-linejoin:miter;stroke-miterlimit:4;stroke-dasharray:none;stroke-dashoffset:0;stroke-opacity:1;paint-order:normal"
         id="rect2039"
         width="270.93335"
         height="169.33333"
         x="308.02814"
         y="7.3779297e-06"
         clip-path="url(#clipPath37755-8)" />
    </clipPath>
    <clipPath
       clipPathUnits="userSpaceOnUse"
       id="clipPath2053">
      <rect
         style="opacity:1;vector-effect:none;fill:#12222b;fill-opacity:0.68911917;stroke:none;stroke-width:1.54174387;stroke-linecap:butt;stroke-linejoin:miter;stroke-miterlimit:4;stroke-dasharray:none;stroke-dashoffset:0;stroke-opacity:1;paint-order:normal"
         id="rect2051"
         width="270.93335"
         height="169.33333"
         x="308.02814"
         y="7.9375004e-06" />
    </clipPath>
    <clipPath
       clipPathUnits="userSpaceOnUse"
       id="clipPath2616">
      <path
         style="display:inline;opacity:1;vector-effect:none;fill:#962c8c;fill-opacity:1;stroke:none;stroke-width:0.28083843px;stroke-linecap:butt;stroke-linejoin:miter;stroke-miterlimit:4;stroke-dasharray:none;stroke-dashoffset:0;stroke-opacity:1;paint-order:normal"
         d="M 287.6449,-8.2010648 H 558.57824 V 161.13228 H 287.6449 Z"
         id="path2618"
         inkscape:connector-curvature="0" />
    </clipPath>
    <clipPath
       clipPathUnits="userSpaceOnUse"
       id="clipPath5994">
      <rect
         y="14.97769"
         x="445.58688"
         height="169.33334"
         width="270.93335"
         id="rect5996"
         style="opacity:1;vector-effect:none;fill:url(#linearGradient5998);fill-opacity:1;stroke:none;stroke-width:0.35721621;stroke-linecap:butt;stroke-linejoin:miter;stroke-miterlimit:4;stroke-dasharray:none;stroke-dashoffset:0;stroke-opacity:1;paint-order:normal" />
    </clipPath>
    <clipPath
       clipPathUnits="userSpaceOnUse"
       id="clipPath3378">
      <path
         inkscape:connector-curvature="0"
         id="path3380"
         d="M 139.96459,187.325 H 410.89793 V 356.65834 H 139.96459 Z"
         style="opacity:1;vector-effect:none;fill:#883380;fill-opacity:1;stroke:none;stroke-width:0.5802983;stroke-linecap:butt;stroke-linejoin:miter;stroke-miterlimit:4;stroke-dasharray:none;stroke-dashoffset:0;stroke-opacity:1;paint-order:normal" />
    </clipPath>
    <clipPath
       clipPathUnits="userSpaceOnUse"
       id="clipPath2438">
      <path
         inkscape:connector-curvature="0"
         id="path2440"
         d="M 406.40001,-237.0667 H 677.33335 V -67.73334 H 406.40001 Z"
         style="display:inline;opacity:1;vector-effect:none;fill:#883380;fill-opacity:1;stroke:none;stroke-width:0.56191027;stroke-linecap:butt;stroke-linejoin:miter;stroke-miterlimit:4;stroke-dasharray:none;stroke-dashoffset:0;stroke-opacity:1;paint-order:normal" />
    </clipPath>
  </defs>
  <sodipodi:namedview
     id="base"
     pagecolor="#ffffff"
     bordercolor="#666666"
     borderopacity="1.0"
     inkscape:pageopacity="0.0"
     inkscape:pageshadow="2"
     inkscape:zoom="0.22565813"
     inkscape:cx="-129.29975"
     inkscape:cy="48.698305"
     inkscape:document-units="px"
     inkscape:current-layer="layer1"
     showgrid="false"
     units="px"
     inkscape:window-width="1320"
     inkscape:window-height="747"
     inkscape:window-x="46"
     inkscape:window-y="21"
     inkscape:window-maximized="1" />
  <metadata
     id="metadata17488">
    <rdf:RDF>
      <cc:Work
         rdf:about="">
        <dc:format>image/svg+xml</dc:format>
        <dc:type
           rdf:resource="http://purl.org/dc/dcmitype/StillImage" />
        <dc:title />
      </cc:Work>
    </rdf:RDF>
  </metadata>
  <g
     inkscape:label="Layer 1"
     inkscape:groupmode="layer"
     id="layer1"
     transform="translate(0,-127.66665)">
    <g
       transform="translate(-406.40001,364.73333)"
       style="display:inline"
       id="g2430"
       clip-path="url(#clipPath2438)">
      <g
         id="g2422">
        <g
           id="g3361"
           clip-path="none"
           transform="matrix(0.52853036,0,0,0.80715815,328.33013,-388.43302)"
           inkscape:export-filename="/home/hamdi/MY_FILES/works-marketplace/cartoon-tileset-6-cave/tiled/bg.png"
           inkscape:export-xdpi="72"
           inkscape:export-ydpi="72">
          <path
             style="opacity:1;vector-effect:none;fill:#110f13;fill-opacity:1;stroke:none;stroke-width:0.61749935;stroke-linecap:butt;stroke-linejoin:miter;stroke-miterlimit:4;stroke-dasharray:none;stroke-dashoffset:0;stroke-opacity:1;paint-order:normal"
             d="m 131.28036,181.89743 v 215.5984 h 535.17556 v -215.5984 z"
             id="rect2412"
             inkscape:connector-curvature="0"
             sodipodi:nodetypes="ccccc" />
          <path
             style="fill:#383838;fill-opacity:0.0935961;stroke:none;stroke-width:0.79053521px;stroke-linecap:butt;stroke-linejoin:miter;stroke-opacity:1"
             d="m 1526.3652,547.16211 c -9.3895,0 -18.6386,0.2793 -18.6386,0.2793 -4.4845,0 -13.7335,-0.55862 -13.4532,2.22851 0.2803,2.7871 0.5596,26.47891 1.961,27.59375 1.4014,1.11484 7.8485,2.50781 11.4922,2.50781 3.6437,0 33.914,0.27837 36.1562,-0.27929 2.2423,-0.55745 3.084,-28.7059 1.9629,-30.93555 -0.5606,-1.11485 -10.091,-1.39453 -19.4805,-1.39453 z m 82.6036,4.26172 c -3.597,0.12569 -6.6465,1.55792 -6.6465,4.48437 0,3.34455 0.996,27.593 2.7382,28.15039 1.7424,0.55745 34.847,1.11465 37.336,0.83594 2.4891,-0.27883 7.4669,-30.6572 1.7422,-32.05078 -5.7248,-1.39355 -33.6016,-1.39453 -33.6016,-1.39453 -0.5289,-0.0349 -1.0545,-0.0433 -1.5683,-0.0254 z m 80.3164,8.88476 c -9.2844,0 -18.5332,0.13868 -18.5332,0.13868 -8.6889,-0.27884 -15.6964,3.7e-4 -14.8555,3.90234 0.8408,3.90197 0.8407,27.5916 2.2422,28.42773 1.4014,0.83613 45.9666,1.39476 48.209,0.5586 2.2422,-0.83613 1.9618,-31.21524 1.6816,-32.33008 -0.1402,-0.55742 -9.4598,-0.69726 -18.7441,-0.69727 z m -77.086,34.4375 c -9.3895,0 -18.6387,0.2793 -18.6387,0.2793 -4.4844,0 -13.7354,-0.55666 -13.455,2.23047 0.2802,2.7871 0.5615,26.47696 1.9629,27.5918 1.4014,1.11484 7.8485,2.50781 11.4921,2.50781 3.6437,0 33.914,0.28032 36.1563,-0.27735 2.2422,-0.55745 3.0821,-28.70785 1.9609,-30.9375 -0.5605,-1.11485 -10.089,-1.39452 -19.4785,-1.39453 z m 35.3711,2.20508 c -4.0504,0.1257 -7.4844,1.55792 -7.4844,4.48438 0,3.34454 1.1221,27.593 3.084,28.15039 1.962,0.55745 39.2402,1.11464 42.043,0.83594 2.8029,-0.27884 8.4074,-30.65721 1.9609,-32.05079 -6.4465,-1.39355 -37.8379,-1.39453 -37.8379,-1.39453 -0.5956,-0.0349 -1.187,-0.0433 -1.7656,-0.0254 z m -179.8086,31.625 c -9.3895,0 -18.6387,0.2793 -18.6387,0.2793 -4.4844,0 -13.7334,-0.55663 -13.4531,2.23047 0.2803,2.7871 0.5596,26.47699 1.961,27.59179 1.4014,1.11484 7.8485,2.50782 11.4921,2.50782 3.6438,0 33.9141,0.27836 36.1563,-0.2793 2.2423,-0.55742 3.082,-28.70587 1.9609,-30.93555 -0.5605,-1.11485 -10.089,-1.39452 -19.4785,-1.39453 z m 32.4727,4.93555 c -4.0505,0.12569 -7.4844,1.55789 -7.4844,4.48437 0,3.34452 1.122,27.59297 3.084,28.15039 1.962,0.55742 39.2401,1.11465 42.043,0.83594 2.8028,-0.27883 8.4074,-30.6572 1.9609,-32.05078 -6.4465,-1.39355 -37.8379,-1.39453 -37.8379,-1.39453 -0.5956,-0.0349 -1.187,-0.0434 -1.7656,-0.0254 z m 118.9551,6.16992 c -4.2043,-0.27883 -6.4473,12.54277 -6.4473,18.95313 0,6.41035 3.3632,14.77285 6.7266,14.49414 3.3633,-0.27884 35.5955,1.67049 39.5195,-0.83789 3.924,-2.50842 3.6445,-8.63847 4.2051,-12.26172 0.5605,-3.62326 0,-19.23165 -2.5235,-19.78907 -2.5225,-0.55742 -41.4804,-0.55859 -41.4804,-0.55859 z m -196.7989,31.13672 c -4.2042,-0.27883 -6.4472,12.54277 -6.4472,18.95312 0,6.41039 3.3632,14.7709 6.7265,14.49219 3.3634,-0.27883 35.5956,1.67248 39.5196,-0.83594 3.924,-2.50838 3.6445,-8.64041 4.205,-12.26367 0.5606,-3.62322 -9e-4,-19.22966 -2.5234,-19.78711 -2.5226,-0.55739 -41.4805,-0.55859 -41.4805,-0.55859 z m 123.8242,6.05078 c -4.0504,0.12569 -7.4843,1.5579 -7.4843,4.48438 0,3.34454 1.122,27.593 3.084,28.15039 1.962,0.55745 39.2382,1.11464 42.041,0.83593 2.8029,-0.27883 8.4094,-30.6572 1.9629,-32.05078 -6.4465,-1.39355 -37.8379,-1.39453 -37.8379,-1.39453 -0.5956,-0.0349 -1.187,-0.0433 -1.7657,-0.0254 z m -154.6699,0.67383 c -9.2844,0 -18.5332,0.14062 -18.5332,0.14062 -8.6888,-0.27883 -15.6963,3.8e-4 -14.8555,3.90235 0.8409,3.90197 0.8408,27.5916 2.2422,28.42773 1.4015,0.83613 45.9667,1.39277 48.209,0.55664 2.2423,-0.83613 1.9619,-31.21524 1.6817,-32.33008 -0.1402,-0.55742 -9.4598,-0.69726 -18.7442,-0.69726 z m 292.377,29.44531 c -3.597,0.12569 -6.6465,1.55792 -6.6465,4.48438 0,3.34454 0.996,27.59297 2.7383,28.15039 1.7423,0.55742 34.8469,1.11461 37.3359,0.83593 2.4891,-0.27883 7.4669,-30.65918 1.7422,-32.05273 -5.7247,-1.39358 -33.6016,-1.39258 -33.6016,-1.39258 -0.5289,-0.0349 -1.0545,-0.0433 -1.5683,-0.0254 z m -185.2617,1.41406 c -3.597,0.1257 -6.6465,1.55793 -6.6465,4.48438 0,3.34455 0.996,27.593 2.7383,28.15039 1.7423,0.55745 34.8469,1.11465 37.3359,0.83594 2.4891,-0.27883 7.4669,-30.65916 1.7422,-32.05274 -5.7247,-1.39355 -33.6016,-1.39258 -33.6016,-1.39258 -0.5289,-0.0349 -1.0545,-0.0433 -1.5683,-0.0254 z m 153.5703,7.05078 c -9.3895,0 -18.6387,0.2793 -18.6387,0.2793 -4.4845,0 -13.7335,-0.55666 -13.4531,2.23047 0.2802,2.7871 0.5595,26.47696 1.9609,27.5918 1.4015,1.11484 7.8485,2.50781 11.4922,2.50781 3.6437,0 33.914,0.27837 36.1562,-0.2793 2.2423,-0.55742 3.084,-28.70587 1.9629,-30.93554 -0.5605,-1.11486 -10.0909,-1.39453 -19.4804,-1.39454 z m -296.3594,0.71876 c -9.2844,-10e-6 -18.5332,0.13867 -18.5332,0.13867 -8.6888,-0.27883 -15.6964,3.7e-4 -14.8555,3.90234 0.8408,3.90197 0.8408,27.59161 2.2422,28.42773 1.4015,0.83613 45.9667,1.39473 48.209,0.5586 2.2422,-0.83616 1.9619,-31.21719 1.6816,-32.33203 -0.1401,-0.55742 -9.4597,-0.69531 -18.7441,-0.69531 z m 111.0977,0.69531 c -9.3896,0 -18.6387,0.27929 -18.6387,0.27929 -4.4845,0 -13.7335,-0.55662 -13.4531,2.23047 0.2802,2.7871 0.5595,26.47696 1.9609,27.5918 1.4014,1.11484 7.8485,2.50781 11.4922,2.50781 3.6437,0 33.914,0.28032 36.1562,-0.27734 2.2423,-0.55745 3.084,-28.70782 1.9629,-30.9375 -0.5605,-1.11484 -10.0909,-1.39453 -19.4804,-1.39453 z m 112.0078,0.41797 c -9.2844,-10e-6 -18.5332,0.14062 -18.5332,0.14062 -8.6889,-0.27853 -15.6964,3.8e-4 -14.8555,3.90234 0.8408,3.90197 0.8407,27.59161 2.2422,28.42774 1.4014,0.83613 45.9666,1.3928 48.209,0.55664 2.2422,-0.83613 1.9618,-31.21524 1.6816,-32.33008 -0.1402,-0.55742 -9.4597,-0.69726 -18.7441,-0.69726 z m 108.1757,33.02539 c -9.3895,-1e-5 -18.6386,0.27929 -18.6386,0.27929 -4.4845,0 -13.7335,-0.55858 -13.4532,2.22852 0.2803,2.7871 0.5596,26.47891 1.961,27.59375 1.4014,1.11481 7.8485,2.50781 11.4922,2.50781 3.6437,0 33.914,0.27837 36.1562,-0.2793 2.2423,-0.55741 3.0821,-28.70782 1.961,-30.9375 -0.5606,-1.11485 -10.089,-1.39257 -19.4786,-1.39257 z m -185.2617,1.41406 c -9.3895,0 -18.6386,0.2793 -18.6386,0.2793 -4.4845,0 -13.7354,-0.55862 -13.4551,2.22851 0.2802,2.7871 0.5615,26.47891 1.9629,27.59375 1.4014,1.11484 7.8485,2.50781 11.4922,2.50781 3.6436,0 33.9139,0.27837 36.1562,-0.27929 2.2422,-0.55745 3.0821,-28.70782 1.9609,-30.9375 -0.5605,-1.11486 -10.089,-1.39258 -19.4785,-1.39258 z m 220.6328,0.78906 c -4.0504,0.1257 -7.4824,1.55985 -7.4824,4.48633 0,3.34452 1.1201,27.59102 3.082,28.14844 1.962,0.55742 39.2402,1.1166 42.043,0.83789 2.8029,-0.27883 8.4075,-30.65919 1.961,-32.05274 -6.4465,-1.39358 -37.8379,-1.39257 -37.8379,-1.39257 -0.5956,-0.0349 -1.187,-0.0453 -1.7657,-0.0273 z m -301.7754,0.88281 c -4.2042,-0.27883 -6.4472,12.54277 -6.4472,18.95313 0,6.41036 3.3632,14.7709 6.7265,14.49219 3.3634,-0.27883 35.5976,1.67245 39.5215,-0.83594 3.924,-2.50842 3.6426,-8.64041 4.2032,-12.26367 0.5605,-3.62326 10e-4,-19.22969 -2.5215,-19.78711 -2.5226,-0.55742 -41.4825,-0.5586 -41.4825,-0.5586 z m 116.5137,0.53125 c -4.0504,0.1257 -7.4844,1.55988 -7.4844,4.48633 0,3.34455 1.1221,27.59297 3.084,28.15039 1.962,0.55742 39.2402,1.11465 42.043,0.83594 2.8029,-0.27883 8.4075,-30.65918 1.9609,-32.05273 -6.4464,-1.39358 -37.8379,-1.39258 -37.8379,-1.39258 -0.5956,-0.0349 -1.1869,-0.0453 -1.7656,-0.0273 z m 90.6348,0.21289 c -9.2844,0 -18.5352,0.14063 -18.5352,0.14063 -8.6888,-0.27883 -15.6944,3.8e-4 -14.8535,3.90234 0.8408,3.90197 0.8407,27.59161 2.2422,28.42774 1.4015,0.83613 45.9667,1.39277 48.209,0.55664 2.2422,-0.83613 1.9619,-31.21524 1.6816,-32.33008 -0.1401,-0.55742 -9.4597,-0.69727 -18.7441,-0.69727 z m -133.9649,34.05274 c -4.0504,0.12569 -7.4824,1.55789 -7.4824,4.48437 0,3.34452 1.1201,27.59298 3.082,28.15039 1.962,0.55742 39.2402,1.11465 42.043,0.83594 2.8029,-0.27883 8.4075,-30.65918 1.961,-32.05273 -6.4465,-1.39358 -37.8379,-1.39258 -37.8379,-1.39258 -0.5956,-0.0349 -1.187,-0.0434 -1.7657,-0.0254 z m -109.7871,2.25391 c -4.2042,-0.27884 -6.4453,12.54273 -6.4453,18.95312 0,6.41036 3.3632,14.7709 6.7266,14.49219 3.3634,-0.27883 35.5956,1.67245 39.5195,-0.83594 3.924,-2.50842 3.6426,-8.64038 4.2031,-12.26367 0.5606,-3.62323 10e-4,-19.22969 -2.5214,-19.78711 -2.5226,-0.55742 -41.4825,-0.55859 -41.4825,-0.55859 z m 236.543,0.32617 c -4.2042,-0.27883 -6.4473,12.54274 -6.4473,18.95312 0,6.41036 3.3652,14.77087 6.7286,14.49219 3.3633,-0.27883 35.5956,1.67245 39.5195,-0.83594 3.924,-2.50842 3.6426,-8.63843 4.2031,-12.26172 0.5606,-3.62322 10e-4,-19.23164 -2.5215,-19.78906 -2.5225,-0.55742 -41.4824,-0.55859 -41.4824,-0.55859 z m 34.9512,35.00781 c -3.597,0.12569 -6.6465,1.55792 -6.6465,4.48437 0,3.34455 0.996,27.59298 2.7383,28.1504 1.7423,0.55742 34.8449,1.11464 37.334,0.83593 2.489,-0.27883 7.4669,-30.65723 1.7421,-32.05078 -5.7247,-1.39358 -33.6015,-1.39453 -33.6015,-1.39453 -0.5289,-0.0349 -1.0526,-0.0434 -1.5664,-0.0254 z m -165.5215,0.63867 c -9.3895,0 -18.6387,0.27735 -18.6387,0.27735 -4.4845,0 -13.7335,-0.55663 -13.4531,2.23046 0.2802,2.7871 0.5615,26.47696 1.9629,27.5918 1.4014,1.11484 7.8465,2.50977 11.4902,2.50977 3.6437,0 33.916,0.27836 36.1582,-0.2793 2.2423,-0.55742 3.0821,-28.70782 1.961,-30.9375 -0.5606,-1.11485 -10.091,-1.39257 -19.4805,-1.39258 z m 32.0098,3.31836 c -4.0505,0.12569 -7.4844,1.55792 -7.4844,4.48438 0,3.34454 1.122,27.593 3.084,28.15039 1.962,0.55745 39.2401,1.11464 42.0429,0.83593 2.8029,-0.27883 8.4075,-30.6572 1.961,-32.05078 -6.4465,-1.39355 -37.8379,-1.39453 -37.8379,-1.39453 -0.5956,-0.0349 -1.187,-0.0433 -1.7656,-0.0254 z m 101.8203,4.50977 c -9.3895,-1e-5 -18.6407,0.27734 -18.6407,0.27734 -4.4844,0 -13.7334,-0.55663 -13.4531,2.23047 0.2802,2.78713 0.5615,26.47696 1.9629,27.5918 1.4014,1.11484 7.8465,2.50976 11.4902,2.50976 3.6437,0 33.916,0.27837 36.1582,-0.2793 2.2423,-0.55745 3.0821,-28.70785 1.961,-30.9375 -0.5606,-1.11485 -10.089,-1.39257 -19.4785,-1.39257 z m 112.0078,0.41797 c -9.2844,0 -18.5332,0.13867 -18.5332,0.13867 -8.6888,-0.27883 -15.6964,3.7e-4 -14.8555,3.90234 0.8408,3.90194 0.8408,27.59161 2.2422,28.42774 1.4014,0.83613 45.9667,1.39472 48.209,0.55859 2.2422,-0.83613 1.9618,-31.21524 1.6816,-32.33008 -0.1401,-0.55742 -9.4597,-0.69726 -18.7441,-0.69726 z m -284.6817,28.80468 c -9.3895,0 -18.6386,0.27735 -18.6386,0.27735 -4.4845,0 -13.7354,-0.55663 -13.4551,2.23047 0.2802,2.78712 0.5615,26.47695 1.9629,27.59179 1.4014,1.11484 7.8485,2.50977 11.4922,2.50977 3.6437,0 33.914,0.27836 36.1562,-0.2793 2.2423,-0.55745 3.0821,-28.70785 1.961,-30.9375 -0.5606,-1.11485 -10.0891,-1.39257 -19.4786,-1.39258 z m -109.9765,3.20508 c -9.2844,0 -18.5332,0.13867 -18.5332,0.13867 -8.6888,-0.27883 -15.6964,3.8e-4 -14.8555,3.90235 0.8408,3.90193 0.8408,27.5916 2.2422,28.42773 1.4014,0.83613 45.9667,1.39472 48.209,0.55859 2.2422,-0.83612 1.9618,-31.21523 1.6816,-32.33007 -0.1401,-0.55742 -9.4597,-0.69727 -18.7441,-0.69727 z m 141.9843,0.11328 c -4.0504,0.12569 -7.4843,1.5579 -7.4843,4.48438 0,3.34452 1.122,27.593 3.084,28.15039 1.962,0.55742 39.2401,1.11465 42.0429,0.83594 2.8029,-0.27884 8.4075,-30.65721 1.961,-32.05079 -6.4465,-1.39354 -37.8379,-1.39453 -37.8379,-1.39453 -0.5956,-0.0349 -1.187,-0.0433 -1.7657,-0.0254 z m 175.586,2.31446 c -9.3895,-10e-6 -18.6387,0.27929 -18.6387,0.27929 -4.4845,0 -13.7334,-0.55663 -13.4531,2.23047 0.2802,2.7871 0.5596,26.47696 1.9609,27.5918 1.4015,1.11484 7.8485,2.50781 11.4922,2.50781 3.6437,0 33.914,0.28032 36.1563,-0.27734 2.2422,-0.55742 3.084,-28.70782 1.9629,-30.9375 -0.5606,-1.11486 -10.091,-1.39453 -19.4805,-1.39453 z m 35.373,2.20507 c -4.0504,0.1257 -7.4843,1.55793 -7.4843,4.48438 0,3.34455 1.122,27.59297 3.0839,28.15039 1.9621,0.55742 39.2382,1.11462 42.0411,0.83594 2.8028,-0.27883 8.4093,-30.65724 1.9629,-32.05078 -6.4465,-1.39358 -37.8379,-1.39454 -37.8379,-1.39454 -0.5956,-0.0349 -1.187,-0.0433 -1.7657,-0.0254 z m -267.0097,31.89649 c -9.2844,-10e-6 -18.5352,0.13867 -18.5352,0.13867 -8.6888,-0.27883 -15.6963,3.8e-4 -14.8555,3.90234 0.8409,3.90197 0.8428,27.59161 2.2442,28.42774 1.4014,0.83613 45.9647,1.39472 48.207,0.55859 2.2423,-0.83613 1.9619,-31.21722 1.6817,-32.33203 -0.1402,-0.55742 -9.4578,-0.6953 -18.7422,-0.69531 z m 111.0957,0.69531 c -9.3895,0 -18.6387,0.2793 -18.6387,0.2793 -4.4845,0 -13.7335,-0.55663 -13.4531,2.23047 0.2802,2.78709 0.5615,26.47695 1.9629,27.59179 1.4014,1.11484 7.8465,2.50782 11.4902,2.50782 3.6437,0 33.914,0.28032 36.1563,-0.27735 2.2422,-0.55742 3.084,-28.70782 1.9628,-30.9375 -0.5605,-1.11485 -10.0909,-1.39453 -19.4804,-1.39453 z m 43.2207,0.5332 c -4.0505,0.1257 -7.4844,1.55793 -7.4844,4.48438 0,3.34455 1.1221,27.59297 3.084,28.15039 1.962,0.55742 39.2401,1.11462 42.043,0.83594 2.8028,-0.27883 8.4074,-30.65919 1.9609,-32.05274 -6.4465,-1.39358 -37.8379,-1.39258 -37.8379,-1.39258 -0.5956,-0.0349 -1.187,-0.0433 -1.7656,-0.0254 z m -38.8457,37.05079 c -4.0505,0.12569 -7.4844,1.55792 -7.4844,4.48437 0,3.34455 1.1221,27.593 3.084,28.15039 1.962,0.55745 39.2401,1.11465 42.043,0.83594 2.8029,-0.27883 8.4074,-30.65916 1.9609,-32.05274 -6.4465,-1.39355 -37.8379,-1.39257 -37.8379,-1.39257 -0.5956,-0.0349 -1.187,-0.0434 -1.7656,-0.0254 z m -154.877,2.11523 c -9.2844,-10e-6 -18.5351,0.13867 -18.5351,0.13867 -8.6889,-0.27883 -15.6944,3.8e-4 -14.8536,3.90234 0.8408,3.90197 0.8408,27.59356 2.2422,28.42969 1.4015,0.83613 45.9667,1.39277 48.209,0.55664 2.2423,-0.83616 1.9619,-31.21524 1.6817,-32.33007 -0.1402,-0.55742 -9.4598,-0.69726 -18.7442,-0.69727 z m 115.0215,5.15625 c -9.3895,0 -18.6387,0.2793 -18.6387,0.2793 -4.4844,0 -13.7354,-0.55862 -13.455,2.22851 0.2802,2.7871 0.5615,26.47891 1.9628,27.59375 1.4015,1.11484 7.8485,2.50781 11.4922,2.50781 3.6437,0 33.914,0.27837 36.1563,-0.27929 2.2422,-0.55745 3.082,-28.70782 1.9609,-30.9375 -0.5605,-1.11486 -10.089,-1.39258 -19.4785,-1.39258 z"
             id="path3046"
             inkscape:connector-curvature="0"
             transform="matrix(0.50060197,0,0,0.32779616,-493.05926,19.042749)" />
          <path
             inkscape:connector-curvature="0"
             id="path2404"
             d="m 515.77797,343.65635 c -4.7004,0 -9.33052,-0.0916 -9.33052,-0.0916 -2.24495,0 -6.87502,0.18311 -6.7347,-0.7305 0.14032,-0.9136 0.28014,-8.67968 0.98168,-9.04512 0.70154,-0.36544 3.92897,-0.82205 5.75302,-0.82205 1.82404,0 16.97741,-0.0913 18.09986,0.0915 1.1225,0.18273 1.54386,9.40968 0.98263,10.14055 -0.28063,0.36544 -5.05157,0.45712 -9.75197,0.45712 z m 41.35152,-1.39697 c -1.80066,-0.0412 -3.32725,-0.51068 -3.32725,-1.46996 0,-1.09633 0.4986,-9.04488 1.37075,-9.22759 0.87225,-0.18273 17.44448,-0.36538 18.69047,-0.27402 1.24605,0.0914 3.73795,10.04931 0.87215,10.50612 -2.86584,0.4568 -16.82102,0.45712 -16.82102,0.45712 -0.26477,0.0114 -0.52789,0.0142 -0.7851,0.008 z m 40.20655,-2.91239 c -4.64779,0 -9.27776,-0.0455 -9.27776,-0.0455 -4.34968,0.0914 -7.85764,-1.2e-4 -7.43669,-1.27917 0.42091,-1.27905 0.42086,-9.04442 1.12245,-9.3185 0.70154,-0.27408 23.01097,-0.4572 24.13352,-0.18311 1.12245,0.27408 0.98208,10.23223 0.84181,10.59767 -0.0702,0.18272 -4.73559,0.22856 -9.38333,0.22857 z m -38.5894,-11.28848 c -4.70041,0 -9.33057,-0.0916 -9.33057,-0.0916 -2.2449,0 -6.87597,0.18247 -6.7356,-0.73114 0.14027,-0.9136 0.28109,-8.67904 0.98263,-9.04448 0.70154,-0.36544 3.92897,-0.82205 5.75297,-0.82205 1.82404,0 16.97741,-0.0919 18.09991,0.0909 1.12245,0.18273 1.54291,9.41032 0.98163,10.14119 -0.28059,0.36545 -5.05057,0.45712 -9.75097,0.45713 z m 17.70684,-0.72282 c -2.02764,-0.0412 -3.74671,-0.51068 -3.74671,-1.46996 0,-1.09633 0.56173,-9.04488 1.54386,-9.22759 0.98218,-0.18273 19.64372,-0.36538 21.04681,-0.27402 1.40314,0.0914 4.20876,10.04932 0.98163,10.50613 -3.22713,0.4568 -18.94173,0.45712 -18.94173,0.45712 -0.29816,0.0114 -0.59421,0.0142 -0.88386,0.008 z m -90.01254,-10.36655 c -4.7004,0 -9.33057,-0.0916 -9.33057,-0.0916 -2.2449,0 -6.87497,0.18246 -6.73465,-0.73114 0.14032,-0.9136 0.28014,-8.67905 0.98168,-9.04448 0.70155,-0.36544 3.92898,-0.82205 5.75297,-0.82205 1.82409,0 16.97747,-0.0913 18.09991,0.0915 1.1225,0.18272 1.54286,9.40967 0.98164,10.14055 -0.28059,0.36545 -5.05058,0.45712 -9.75098,0.45713 z m 16.2559,-1.61786 c -2.02769,-0.0412 -3.74671,-0.51067 -3.74671,-1.46996 0,-1.09632 0.56168,-9.04487 1.54386,-9.22759 0.98218,-0.18272 19.64367,-0.36538 21.04681,-0.27402 1.40308,0.0914 4.20876,10.04932 0.98163,10.50613 -3.22713,0.4568 -18.94173,0.45712 -18.94173,0.45712 -0.29816,0.0114 -0.59421,0.0142 -0.88386,0.008 z m 59.54915,-2.02247 c -2.10468,0.0914 -3.22753,-4.11148 -3.22753,-6.21277 0,-2.10129 1.68363,-4.84248 3.36735,-4.75112 1.68368,0.0914 17.81918,-0.54758 19.78354,0.27466 1.96436,0.82225 1.82445,2.83165 2.10508,4.01934 0.28059,1.18769 0,6.30406 -1.26327,6.48678 -1.26276,0.18272 -20.76517,0.18311 -20.76517,0.18311 z m -98.51791,-10.2065 c -2.10463,0.0914 -3.22748,-4.11147 -3.22748,-6.21276 0,-2.1013 1.68362,-4.84185 3.3673,-4.75049 1.68372,0.0914 17.81922,-0.54823 19.78359,0.27402 1.96436,0.82224 1.82444,2.8323 2.10503,4.01999 0.28063,1.18767 -4.5e-4,6.3034 -1.26322,6.48613 -1.26282,0.18272 -20.76522,0.18311 -20.76522,0.18311 z m 61.98664,-1.98342 c -2.02764,-0.0412 -3.74666,-0.51068 -3.74666,-1.46997 0,-1.09632 0.56168,-9.04488 1.54386,-9.22759 0.98218,-0.18273 19.64272,-0.36537 21.0458,-0.27401 1.40314,0.0914 4.20977,10.04931 0.98264,10.50612 -3.22713,0.4568 -18.94173,0.45712 -18.94173,0.45712 -0.29816,0.0114 -0.59422,0.0142 -0.88391,0.008 z m -77.42806,-0.22088 c -4.64779,0 -9.27776,-0.0461 -9.27776,-0.0461 -4.34963,0.0914 -7.8576,-1.2e-4 -7.43669,-1.27917 0.42096,-1.27905 0.42091,-9.04442 1.12245,-9.3185 0.70159,-0.27408 23.01102,-0.45655 24.13352,-0.18247 1.1225,0.27408 0.98213,10.23224 0.84186,10.59768 -0.0702,0.18272 -4.73559,0.22856 -9.38338,0.22856 z m 146.3645,-9.65206 c -1.80066,-0.0412 -3.32725,-0.51068 -3.32725,-1.46996 0,-1.09633 0.4986,-9.04487 1.3708,-9.22759 0.8722,-0.18272 17.44443,-0.36537 18.69042,-0.27402 1.24605,0.0914 3.73795,10.04996 0.87215,10.50676 -2.86579,0.45681 -16.82102,0.45648 -16.82102,0.45648 -0.26477,0.0114 -0.52789,0.0142 -0.7851,0.008 z m -92.74237,-0.46353 c -1.80067,-0.0412 -3.32725,-0.51068 -3.32725,-1.46996 0,-1.09633 0.4986,-9.04488 1.3708,-9.22759 0.8722,-0.18273 17.44442,-0.36538 18.69042,-0.27402 1.24605,0.0914 3.73795,10.04996 0.87215,10.50677 -2.8658,0.4568 -16.82103,0.45648 -16.82103,0.45648 -0.26476,0.0114 -0.52788,0.0142 -0.78509,0.008 z m 76.87759,-2.31121 c -4.7004,0 -9.33057,-0.0916 -9.33057,-0.0916 -2.24495,0 -6.87501,0.18247 -6.73464,-0.73114 0.14026,-0.9136 0.28008,-8.67904 0.98163,-9.04448 0.70159,-0.36544 3.92897,-0.82205 5.75301,-0.82205 1.82405,0 16.97742,-0.0913 18.09987,0.0915 1.1225,0.18272 1.54386,9.40967 0.98263,10.14055 -0.28059,0.36545 -5.05152,0.45712 -9.75193,0.45713 z m -148.3581,-0.23561 c -4.64778,0 -9.27775,-0.0455 -9.27775,-0.0455 -4.34963,0.0914 -7.85765,-1.2e-4 -7.43669,-1.27917 0.4209,-1.27905 0.4209,-9.04442 1.12245,-9.3185 0.70159,-0.27408 23.01102,-0.45719 24.13352,-0.18311 1.12245,0.27409 0.98213,10.23288 0.84181,10.59832 -0.0701,0.18272 -4.73555,0.22792 -9.38334,0.22792 z m 55.61573,-0.22792 c -4.70045,0 -9.33057,-0.0916 -9.33057,-0.0916 -2.24495,0 -6.87501,0.18246 -6.73465,-0.73114 0.14027,-0.9136 0.28009,-8.67905 0.98163,-9.04449 0.70155,-0.36544 3.92898,-0.82205 5.75302,-0.82205 1.82405,0 16.97742,-0.0919 18.09987,0.0909 1.1225,0.18273 1.54385,9.41032 0.98263,10.1412 -0.28059,0.36544 -5.05153,0.45712 -9.75193,0.45712 z m 56.07133,-0.13701 c -4.64779,0 -9.27776,-0.0461 -9.27776,-0.0461 -4.34968,0.0913 -7.85765,-1.3e-4 -7.43669,-1.27918 0.4209,-1.27905 0.42085,-9.04442 1.12245,-9.3185 0.70154,-0.27408 23.01097,-0.45656 24.13352,-0.18247 1.12245,0.27408 0.98208,10.23224 0.84181,10.59768 -0.0702,0.18272 -4.73554,0.22856 -9.38333,0.22856 z m 54.15297,-10.8256 c -4.70041,1e-5 -9.33052,-0.0915 -9.33052,-0.0915 -2.24495,0 -6.87502,0.1831 -6.7347,-0.7305 0.14032,-0.9136 0.28013,-8.67968 0.98168,-9.04512 0.70154,-0.36543 3.92897,-0.82205 5.75302,-0.82205 1.82404,0 16.97741,-0.0913 18.09986,0.0915 1.1225,0.18272 1.54291,9.41031 0.98168,10.14119 -0.28064,0.36545 -5.05057,0.45648 -9.75102,0.45648 z m -92.74238,-0.46352 c -4.7004,0 -9.33052,-0.0915 -9.33052,-0.0915 -2.24495,0 -6.87596,0.18311 -6.73565,-0.7305 0.14027,-0.9136 0.28109,-8.67969 0.98264,-9.04513 0.70154,-0.36544 3.92897,-0.82205 5.75301,-0.82205 1.824,0 16.97737,-0.0912 18.09987,0.0916 1.12245,0.18273 1.5429,9.41032 0.98163,10.1412 -0.28059,0.36544 -5.05057,0.45648 -9.75098,0.45648 z m 110.44922,-0.25865 c -2.02764,-0.0412 -3.74571,-0.51131 -3.74571,-1.4706 0,-1.09632 0.56073,-9.04423 1.54286,-9.22695 0.98218,-0.18272 19.64372,-0.36602 21.04681,-0.27466 1.40314,0.0914 4.20881,10.04996 0.98168,10.50677 -3.22713,0.45681 -18.94173,0.45647 -18.94173,0.45647 -0.29816,0.0114 -0.59421,0.0148 -0.88391,0.009 z m -151.06936,-0.28938 c -2.10463,0.0914 -3.22748,-4.11147 -3.22748,-6.21277 0,-2.10129 1.68362,-4.84184 3.3673,-4.75048 1.68372,0.0914 17.82023,-0.54822 19.78454,0.27402 1.96436,0.82225 1.82349,2.83229 2.10413,4.01998 0.28059,1.18769 5e-4,6.30342 -1.26227,6.48614 -1.26282,0.18272 -20.76622,0.18311 -20.76622,0.18311 z m 58.32699,-0.17414 c -2.02764,-0.0412 -3.74671,-0.51133 -3.74671,-1.47061 0,-1.09633 0.56173,-9.04487 1.54386,-9.22759 0.98218,-0.18272 19.64372,-0.36537 21.04681,-0.27401 1.40313,0.0914 4.20881,10.04996 0.98163,10.50676 -3.22708,0.45681 -18.94173,0.45648 -18.94173,0.45648 -0.29816,0.0114 -0.59416,0.0149 -0.88386,0.009 z m 45.37196,-0.0698 c -4.64779,0 -9.27876,-0.0461 -9.27876,-0.0461 -4.34963,0.0914 -7.85665,-1.2e-4 -7.43569,-1.27917 0.4209,-1.27905 0.42085,-9.04442 1.12245,-9.3185 0.70159,-0.27408 23.01102,-0.45655 24.13352,-0.18247 1.12245,0.27408 0.98213,10.23224 0.84181,10.59768 -0.0701,0.18272 -4.73554,0.22856 -9.38333,0.22856 z m -67.0631,-11.16236 c -2.02763,-0.0412 -3.7457,-0.51067 -3.7457,-1.46996 0,-1.09632 0.56072,-9.04487 1.54285,-9.22758 0.98219,-0.18272 19.64373,-0.36538 21.04681,-0.27402 1.40314,0.0914 4.20881,10.04996 0.98168,10.50676 -3.22713,0.45681 -18.94172,0.45648 -18.94172,0.45648 -0.29816,0.0114 -0.59422,0.0142 -0.88392,0.008 z M 444.582,263.9084 c -2.10463,0.0914 -3.22653,-4.11146 -3.22653,-6.21276 0,-2.10129 1.68363,-4.84184 3.36735,-4.75048 1.68373,0.0914 17.81923,-0.54823 19.78354,0.27401 1.96437,0.82226 1.8235,2.83229 2.10408,4.01999 0.28064,1.18768 5e-4,6.30342 -1.26221,6.48614 -1.26282,0.18272 -20.76623,0.1831 -20.76623,0.1831 z m 118.4139,-0.10692 c -2.10463,0.0914 -3.22753,-4.11146 -3.22753,-6.21276 0,-2.10129 1.68462,-4.84183 3.36835,-4.75048 1.68367,0.0914 17.81922,-0.54822 19.78354,0.27402 1.96436,0.82225 1.82349,2.83164 2.10408,4.01934 0.28063,1.18768 5e-4,6.30406 -1.26227,6.48678 -1.26277,0.18272 -20.76617,0.1831 -20.76617,0.1831 z m 17.49664,-11.47542 c -1.80067,-0.0412 -3.32725,-0.51068 -3.32725,-1.46996 0,-1.09633 0.49859,-9.04487 1.37079,-9.22759 0.8722,-0.18272 17.44343,-0.36538 18.68948,-0.27402 1.246,0.0914 3.73794,10.04932 0.8721,10.50612 -2.8658,0.45681 -16.82098,0.45713 -16.82098,0.45713 -0.26477,0.0114 -0.52693,0.0142 -0.78414,0.008 z m -82.86039,-0.20936 c -4.70041,0 -9.33057,-0.0909 -9.33057,-0.0909 -2.24495,0 -6.87502,0.18246 -6.73465,-0.73114 0.14027,-0.9136 0.28109,-8.67904 0.98263,-9.04448 0.70154,-0.36544 3.92797,-0.82269 5.75202,-0.82269 1.82404,0 16.97841,-0.0913 18.10086,0.0916 1.1225,0.18272 1.54291,9.41031 0.98168,10.14119 -0.28063,0.36545 -5.05157,0.45648 -9.75197,0.45648 z m 16.02417,-1.08774 c -2.02769,-0.0412 -3.74671,-0.51068 -3.74671,-1.46996 0,-1.09633 0.56168,-9.04488 1.54386,-9.22759 0.98218,-0.18273 19.64367,-0.36538 21.04676,-0.27402 1.40313,0.0914 4.20881,10.04931 0.98168,10.50612 -3.22713,0.45681 -18.94173,0.45713 -18.94173,0.45713 -0.29816,0.0114 -0.59422,0.0142 -0.88386,0.008 z m 50.97144,-1.47829 c -4.7004,1e-5 -9.33157,-0.0909 -9.33157,-0.0909 -2.2449,0 -6.87497,0.18246 -6.73465,-0.73114 0.14027,-0.91361 0.28109,-8.67904 0.98263,-9.04448 0.70154,-0.36544 3.92797,-0.82269 5.75202,-0.82269 1.82404,0 16.97841,-0.0913 18.10086,0.0916 1.1225,0.18273 1.54291,9.41032 0.98168,10.14119 -0.28063,0.36545 -5.05057,0.45648 -9.75097,0.45648 z m 56.07132,-0.13701 c -4.64778,0 -9.27775,-0.0454 -9.27775,-0.0454 -4.34963,0.0914 -7.85765,-1.2e-4 -7.43669,-1.27917 0.4209,-1.27904 0.4209,-9.04443 1.12244,-9.31851 0.70155,-0.27408 23.01103,-0.45718 24.13353,-0.1831 1.12244,0.27408 0.98208,10.23224 0.84181,10.59768 -0.0701,0.18272 -4.73555,0.22855 -9.38334,0.22855 z M 478.18686,239.9716 c -4.7004,0 -9.33052,-0.0909 -9.33052,-0.0909 -2.24495,0 -6.87596,0.18246 -6.73565,-0.73114 0.14027,-0.91361 0.28109,-8.67905 0.98264,-9.04449 0.70154,-0.36544 3.92897,-0.82269 5.75301,-0.82269 1.82405,0 16.97742,-0.0912 18.09987,0.0916 1.1225,0.18273 1.5429,9.41032 0.98168,10.14119 -0.28064,0.36544 -5.05062,0.45648 -9.75103,0.45648 z m -55.05445,-1.05061 c -4.64779,0 -9.27775,-0.0455 -9.27775,-0.0455 -4.34964,0.0914 -7.85765,-1.2e-4 -7.4367,-1.27917 0.42091,-1.27904 0.42091,-9.04442 1.12245,-9.3185 0.70155,-0.27408 23.01102,-0.45719 24.13352,-0.18311 1.12245,0.27408 0.98208,10.23224 0.84182,10.59768 -0.0701,0.18272 -4.73555,0.22856 -9.38334,0.22856 z m 71.07762,-0.0371 c -2.02764,-0.0412 -3.74665,-0.51068 -3.74665,-1.46997 0,-1.09632 0.56167,-9.04488 1.54385,-9.22759 0.98218,-0.18272 19.64367,-0.36537 21.04676,-0.27401 1.40314,0.0914 4.20881,10.04931 0.98168,10.50612 -3.22713,0.4568 -18.94173,0.45712 -18.94173,0.45712 -0.29815,0.0114 -0.59421,0.0142 -0.88391,0.008 z m 87.8987,-0.75868 c -4.7004,1e-5 -9.33057,-0.0915 -9.33057,-0.0915 -2.24495,0 -6.87497,0.18247 -6.73465,-0.73114 0.14027,-0.9136 0.28014,-8.67904 0.98163,-9.04448 0.7016,-0.36544 3.92898,-0.82205 5.75302,-0.82205 1.82404,0 16.97741,-0.0919 18.09991,0.0909 1.12245,0.18272 1.54386,9.41031 0.98264,10.14119 -0.28064,0.36545 -5.05158,0.45712 -9.75198,0.45712 z m 17.70779,-0.72281 c -2.02764,-0.0412 -3.74665,-0.51068 -3.74665,-1.46996 0,-1.09633 0.56167,-9.04487 1.5438,-9.22759 0.98224,-0.18272 19.64272,-0.36537 21.04586,-0.27402 1.40309,0.0914 4.20971,10.04933 0.98263,10.50612 -3.22713,0.45681 -18.94172,0.45713 -18.94172,0.45713 -0.29816,0.0114 -0.59422,0.0142 -0.88392,0.008 z M 466.15094,226.94685 c -4.64779,10e-6 -9.27876,-0.0454 -9.27876,-0.0454 -4.34963,0.0914 -7.8576,-1.3e-4 -7.43669,-1.27917 0.42096,-1.27905 0.42191,-9.04443 1.12345,-9.31851 0.70155,-0.27408 23.01002,-0.45718 24.13252,-0.1831 1.1225,0.27408 0.98213,10.23288 0.84186,10.59831 -0.0702,0.18272 -4.73459,0.22792 -9.38238,0.22792 z m 55.61473,-0.22792 c -4.7004,0 -9.33057,-0.0915 -9.33057,-0.0915 -2.24495,0 -6.87502,0.18246 -6.73465,-0.73114 0.14027,-0.9136 0.28109,-8.67904 0.98263,-9.04448 0.70154,-0.36544 3.92797,-0.82206 5.75202,-0.82206 1.82404,0 16.97741,-0.0919 18.09991,0.0909 1.12245,0.18272 1.54386,9.41031 0.98258,10.14119 -0.28058,0.36545 -5.05152,0.45712 -9.75192,0.45712 z m 21.63637,-0.17478 c -2.02769,-0.0412 -3.74671,-0.51068 -3.74671,-1.46996 0,-1.09633 0.56173,-9.04487 1.54386,-9.22759 0.98218,-0.18272 19.64367,-0.36537 21.0468,-0.27402 1.40309,0.0914 4.20877,10.04997 0.98164,10.50677 -3.22714,0.45681 -18.94173,0.45648 -18.94173,0.45648 -0.29816,0.0114 -0.59422,0.0142 -0.88386,0.008 z m -19.44624,-12.1451 c -2.02769,-0.0412 -3.7467,-0.51068 -3.7467,-1.46996 0,-1.09633 0.56172,-9.04488 1.54385,-9.22759 0.98218,-0.18273 19.64367,-0.36538 21.04681,-0.27402 1.40314,0.0914 4.20876,10.04995 0.98163,10.50676 -3.22713,0.45681 -18.94173,0.45648 -18.94173,0.45648 -0.29815,0.0114 -0.59421,0.0142 -0.88386,0.008 z m -77.53173,-0.69337 c -4.64779,1e-5 -9.27871,-0.0454 -9.27871,-0.0454 -4.34968,0.0914 -7.85665,-1.3e-4 -7.43574,-1.27918 0.42091,-1.27905 0.42091,-9.04506 1.12245,-9.31914 0.70159,-0.27408 23.01102,-0.45654 24.13352,-0.18246 1.1225,0.27409 0.98213,10.23223 0.84186,10.59767 -0.0702,0.18272 -4.73559,0.22856 -9.38338,0.22856 z m 57.57999,-1.6902 c -4.7004,0 -9.33057,-0.0916 -9.33057,-0.0916 -2.2449,0 -6.87597,0.18311 -6.7356,-0.7305 0.14027,-0.9136 0.28109,-8.67968 0.98258,-9.04512 0.7016,-0.36544 3.92898,-0.82205 5.75302,-0.82205 1.82404,0 16.97741,-0.0913 18.09991,0.0915 1.12245,0.18273 1.54286,9.41031 0.98163,10.14119 -0.28058,0.36545 -5.05057,0.45648 -9.75097,0.45648 z"
             style="fill:#383838;fill-opacity:0.0935961;stroke:none;stroke-width:0.32023546px;stroke-linecap:butt;stroke-linejoin:miter;stroke-opacity:1" />
          <path
             style="fill:#383838;fill-opacity:0.0935961;stroke:none;stroke-width:0.32023546px;stroke-linecap:butt;stroke-linejoin:miter;stroke-opacity:1"
             d="m 412.2487,322.48814 c 4.7004,0 9.33057,0.0916 9.33057,0.0916 2.2449,0 6.87497,-0.18246 6.73465,0.73114 -0.14032,0.9136 -0.28014,8.67905 -0.98168,9.04448 -0.70155,0.36544 -3.92898,0.82205 -5.75297,0.82205 -1.82409,0 -16.97747,0.0913 -18.09991,-0.0915 -1.1225,-0.18272 -1.54286,-9.40967 -0.98164,-10.14055 0.28059,-0.36545 5.05058,-0.45712 9.75098,-0.45713 z m -16.2559,1.61786 c 2.02769,0.0412 3.74671,0.51067 3.74671,1.46996 0,1.09632 -0.56168,9.04487 -1.54386,9.22759 -0.98218,0.18272 -19.64367,0.36538 -21.04681,0.27402 -1.40308,-0.0914 -4.20876,-10.04932 -0.98163,-10.50613 3.22713,-0.4568 18.94173,-0.45712 18.94173,-0.45712 0.29816,-0.0114 0.59421,-0.0142 0.88386,-0.008 z m 38.96876,12.22897 c 2.10463,-0.0914 3.22748,4.11147 3.22748,6.21276 0,2.1013 -1.68362,4.84185 -3.3673,4.75049 -1.68372,-0.0914 -17.81922,0.54823 -19.78359,-0.27402 -1.96436,-0.82224 -1.82444,-2.8323 -2.10503,-4.01999 -0.28063,-1.18767 4.5e-4,-6.3034 1.26322,-6.48613 1.26282,-0.18272 20.76522,-0.18311 20.76522,-0.18311 z m -61.98664,1.98342 c 2.02764,0.0412 3.74666,0.51068 3.74666,1.46997 0,1.09632 -0.56168,9.04488 -1.54386,9.22759 -0.98218,0.18273 -19.64272,0.36537 -21.0458,0.27401 -1.40314,-0.0914 -4.20977,-10.04931 -0.98264,-10.50612 3.22713,-0.4568 18.94173,-0.45712 18.94173,-0.45712 0.29816,-0.0114 0.59422,-0.0142 0.88391,-0.008 z m 77.42806,0.22088 c 4.64779,0 9.27776,0.0461 9.27776,0.0461 4.34963,-0.0914 7.8576,1.2e-4 7.43669,1.27917 -0.42096,1.27905 -0.42091,9.04442 -1.12245,9.3185 -0.70159,0.27408 -23.01102,0.45655 -24.13352,0.18247 -1.1225,-0.27408 -0.98213,-10.23224 -0.84186,-10.59768 0.0702,-0.18272 4.73559,-0.22856 9.38338,-0.22856 z m -146.3645,9.65206 c 1.80066,0.0412 3.32725,0.51068 3.32725,1.46996 0,1.09633 -0.4986,9.04487 -1.3708,9.22759 -0.8722,0.18272 -17.44443,0.36537 -18.69042,0.27402 -1.24605,-0.0914 -3.73795,-10.04996 -0.87215,-10.50676 2.86579,-0.45681 16.82102,-0.45648 16.82102,-0.45648 0.26477,-0.0114 0.52789,-0.0142 0.7851,-0.008 z m 92.74237,0.46353 c 1.80067,0.0412 3.32725,0.51068 3.32725,1.46996 0,1.09633 -0.4986,9.04488 -1.3708,9.22759 -0.8722,0.18273 -17.44442,0.36538 -18.69042,0.27402 -1.24605,-0.0914 -3.73795,-10.04996 -0.87215,-10.50677 2.8658,-0.4568 16.82103,-0.45648 16.82103,-0.45648 0.26476,-0.0114 0.52788,-0.0142 0.78509,-0.008 z m -76.87759,2.31121 c 4.7004,0 9.33057,0.0916 9.33057,0.0916 2.24495,0 6.87501,-0.18247 6.73464,0.73114 -0.14026,0.9136 -0.28008,8.67904 -0.98163,9.04448 -0.70159,0.36544 -3.92897,0.82205 -5.75301,0.82205 -1.82405,0 -16.97742,0.0913 -18.09987,-0.0915 -1.1225,-0.18272 -1.54386,-9.40967 -0.98263,-10.14055 0.28059,-0.36545 5.05152,-0.45712 9.75193,-0.45713 z m 148.3581,0.23561 c 4.64778,0 9.27775,0.0455 9.27775,0.0455 4.34963,-0.0914 7.85765,1.2e-4 7.43669,1.27917 -0.4209,1.27905 -0.4209,9.04442 -1.12245,9.3185 -0.70159,0.27408 -23.01102,0.45719 -24.13352,0.18311 -1.12245,-0.27409 -0.98213,-10.23288 -0.84181,-10.59832 0.0701,-0.18272 4.73555,-0.22792 9.38334,-0.22792 z m -55.61573,0.22792 c 4.70045,0 9.33057,0.0916 9.33057,0.0916 2.24495,0 6.87501,-0.18246 6.73465,0.73114 -0.14027,0.9136 -0.28009,8.67905 -0.98163,9.04449 -0.70155,0.36544 -3.92898,0.82205 -5.75302,0.82205 -1.82405,0 -16.97742,0.0919 -18.09987,-0.0909 -1.1225,-0.18273 -1.54385,-9.41032 -0.98263,-10.1412 0.28059,-0.36544 5.05153,-0.45712 9.75193,-0.45712 z m -56.07133,0.13701 c 4.64779,0 9.27776,0.0461 9.27776,0.0461 4.34968,-0.0913 7.85765,1.3e-4 7.43669,1.27918 -0.4209,1.27905 -0.42085,9.04442 -1.12245,9.3185 -0.70154,0.27408 -23.01097,0.45656 -24.13352,0.18247 -1.12245,-0.27408 -0.98208,-10.23224 -0.84181,-10.59768 0.0702,-0.18272 4.73554,-0.22856 9.38333,-0.22856 z m -54.15297,10.8256 c 4.70041,-10e-6 9.33052,0.0915 9.33052,0.0915 2.24495,0 6.87502,-0.1831 6.7347,0.7305 -0.14032,0.9136 -0.28013,8.67968 -0.98168,9.04512 -0.70154,0.36543 -3.92897,0.82205 -5.75302,0.82205 -1.82404,0 -16.97741,0.0913 -18.09986,-0.0915 -1.1225,-0.18272 -1.54291,-9.41031 -0.98168,-10.14119 0.28064,-0.36545 5.05057,-0.45648 9.75102,-0.45648 z m 92.74238,0.46352 c 4.7004,0 9.33052,0.0915 9.33052,0.0915 2.24495,0 6.87596,-0.18311 6.73565,0.7305 -0.14027,0.9136 -0.28109,8.67969 -0.98264,9.04513 -0.70154,0.36544 -3.92897,0.82205 -5.75301,0.82205 -1.824,0 -16.97737,0.0912 -18.09987,-0.0916 -1.12245,-0.18273 -1.5429,-9.41032 -0.98163,-10.1412 0.28059,-0.36544 5.05057,-0.45648 9.75098,-0.45648 z m -110.44922,0.25865 c 2.02764,0.0412 3.74571,0.51131 3.74571,1.4706 0,1.09632 -0.56073,9.04423 -1.54286,9.22695 -0.98218,0.18272 -19.64372,0.36602 -21.04681,0.27466 -1.40314,-0.0914 -4.20881,-10.04996 -0.98168,-10.50677 3.22713,-0.45681 18.94173,-0.45647 18.94173,-0.45647 0.29816,-0.0114 0.59421,-0.0148 0.88391,-0.009 z m 151.06936,0.28938 c 2.10463,-0.0914 3.22748,4.11147 3.22748,6.21277 0,2.10129 -1.68362,4.84184 -3.3673,4.75048 -1.68372,-0.0914 -17.82023,0.54822 -19.78454,-0.27402 -1.96436,-0.82225 -1.82349,-2.83229 -2.10413,-4.01998 -0.28059,-1.18769 -5e-4,-6.30342 1.26227,-6.48614 1.26282,-0.18272 20.76622,-0.18311 20.76622,-0.18311 z m -58.32699,0.17414 c 2.02764,0.0412 3.74671,0.51133 3.74671,1.47061 0,1.09633 -0.56173,9.04487 -1.54386,9.22759 -0.98218,0.18272 -19.64372,0.36537 -21.04681,0.27401 -1.40313,-0.0914 -4.20881,-10.04996 -0.98163,-10.50676 3.22708,-0.45681 18.94173,-0.45648 18.94173,-0.45648 0.29816,-0.0114 0.59416,-0.0149 0.88386,-0.009 z m -45.37196,0.0698 c 4.64779,0 9.27876,0.0461 9.27876,0.0461 4.34963,-0.0914 7.85665,1.2e-4 7.43569,1.27917 -0.4209,1.27905 -0.42085,9.04442 -1.12245,9.3185 -0.70159,0.27408 -23.01102,0.45655 -24.13352,0.18247 -1.12245,-0.27408 -0.98213,-10.23224 -0.84181,-10.59768 0.0701,-0.18272 4.73554,-0.22856 9.38333,-0.22856 z m 67.0631,11.16236 c 2.02763,0.0412 3.7457,0.51067 3.7457,1.46996 0,1.09632 -0.56072,9.04487 -1.54285,9.22758 -0.98219,0.18272 -19.64373,0.36538 -21.04681,0.27402 -1.40314,-0.0914 -4.20881,-10.04996 -0.98168,-10.50676 3.22713,-0.45681 18.94172,-0.45648 18.94172,-0.45648 0.29816,-0.0114 0.59422,-0.0142 0.88392,-0.008 z m 54.95964,0.73882 c 2.10463,-0.0914 3.22653,4.11146 3.22653,6.21276 0,2.10129 -1.68363,4.84184 -3.36735,4.75048 -1.68373,-0.0914 -17.81923,0.54823 -19.78354,-0.27401 -1.96437,-0.82226 -1.8235,-2.83229 -2.10408,-4.01999 -0.28064,-1.18768 -5e-4,-6.30342 1.26221,-6.48614 1.26282,-0.18272 20.76623,-0.1831 20.76623,-0.1831 z"
             id="path2406"
             inkscape:connector-curvature="0"
             sodipodi:nodetypes="ccscscccccssccccccsccccccsccccccscccscscssccccccsccccccccccsccccccccccccccccsccccccccccccccscscccccccscccccsccsccccsccccccsccccccscccccscscccccccsccccc" />
        </g>
      </g>
    </g>
  </g>
</svg>
