<?xml version="1.0" encoding="UTF-8" standalone="no"?>
<!-- Created with Inkscape (http://www.inkscape.org/) -->

<svg
   xmlns:dc="http://purl.org/dc/elements/1.1/"
   xmlns:cc="http://creativecommons.org/ns#"
   xmlns:rdf="http://www.w3.org/1999/02/22-rdf-syntax-ns#"
   xmlns:svg="http://www.w3.org/2000/svg"
   xmlns="http://www.w3.org/2000/svg"
   xmlns:xlink="http://www.w3.org/1999/xlink"
   xmlns:sodipodi="http://sodipodi.sourceforge.net/DTD/sodipodi-0.dtd"
   xmlns:inkscape="http://www.inkscape.org/namespaces/inkscape"
   width="1024"
   height="640"
   viewBox="0 0 270.93333 169.33334"
   version="1.1"
   id="svg17491"
   inkscape:version="0.92.4 (f8dce91, 2019-08-02)"
   sodipodi:docname="bg-cave.svg"
   inkscape:export-filename="/home/hamdi/MY_FILES/works-marketplace/cartoon-tileset-06-cave-done/uploads/png2x/bg-cave.png"
   inkscape:export-xdpi="192"
   inkscape:export-ydpi="192">
  <defs
     id="defs17485">
    <clipPath
       clipPathUnits="userSpaceOnUse"
       id="clipPath17274">
      <rect
         style="opacity:1;vector-effect:none;fill:#729580;fill-opacity:1;stroke:none;stroke-width:0.70194983px;stroke-linecap:butt;stroke-linejoin:miter;stroke-miterlimit:4;stroke-dasharray:none;stroke-dashoffset:0;stroke-opacity:1;paint-order:normal"
         id="rect17276"
         width="270.93335"
         height="169.33334"
         x="274.30505"
         y="35.984901" />
    </clipPath>
    <clipPath
       clipPathUnits="userSpaceOnUse"
       id="clipPath37796">
      <rect
         transform="translate(-4.7050103e-6)"
         style="opacity:1;vector-effect:none;fill:#9bbbcd;fill-opacity:1;stroke:none;stroke-width:1.54174387;stroke-linecap:butt;stroke-linejoin:miter;stroke-miterlimit:4;stroke-dasharray:none;stroke-dashoffset:0;stroke-opacity:1;paint-order:normal"
         id="rect37798"
         width="270.93335"
         height="169.33333"
         x="308.02814"
         y="7.3779297e-06"
         clip-path="url(#clipPath37755-8)" />
    </clipPath>
    <clipPath
       clipPathUnits="userSpaceOnUse"
       id="clipPath37755-3">
      <rect
         style="opacity:1;vector-effect:none;fill:#12222b;fill-opacity:0.68911917;stroke:none;stroke-width:1.54174387;stroke-linecap:butt;stroke-linejoin:miter;stroke-miterlimit:4;stroke-dasharray:none;stroke-dashoffset:0;stroke-opacity:1;paint-order:normal"
         id="rect37757-8"
         width="270.93335"
         height="169.33333"
         x="308.02814"
         y="7.9375004e-06" />
    </clipPath>
    <clipPath
       clipPathUnits="userSpaceOnUse"
       id="clipPath37796-4">
      <rect
         transform="translate(-4.7050103e-6)"
         style="opacity:1;vector-effect:none;fill:#9bbbcd;fill-opacity:1;stroke:none;stroke-width:1.54174387;stroke-linecap:butt;stroke-linejoin:miter;stroke-miterlimit:4;stroke-dasharray:none;stroke-dashoffset:0;stroke-opacity:1;paint-order:normal"
         id="rect37798-9"
         width="270.93335"
         height="169.33333"
         x="308.02814"
         y="7.3779297e-06"
         clip-path="url(#clipPath37755-8)" />
    </clipPath>
    <clipPath
       clipPathUnits="userSpaceOnUse"
       id="clipPath37755-3-2">
      <rect
         style="opacity:1;vector-effect:none;fill:#12222b;fill-opacity:0.68911917;stroke:none;stroke-width:1.54174387;stroke-linecap:butt;stroke-linejoin:miter;stroke-miterlimit:4;stroke-dasharray:none;stroke-dashoffset:0;stroke-opacity:1;paint-order:normal"
         id="rect37757-8-5"
         width="270.93335"
         height="169.33333"
         x="308.02814"
         y="7.9375004e-06" />
    </clipPath>
    <clipPath
       clipPathUnits="userSpaceOnUse"
       id="clipPath37796-4-7">
      <rect
         transform="translate(-4.7050103e-6)"
         style="opacity:1;vector-effect:none;fill:#9bbbcd;fill-opacity:1;stroke:none;stroke-width:1.54174387;stroke-linecap:butt;stroke-linejoin:miter;stroke-miterlimit:4;stroke-dasharray:none;stroke-dashoffset:0;stroke-opacity:1;paint-order:normal"
         id="rect37798-9-8"
         width="270.93335"
         height="169.33333"
         x="308.02814"
         y="7.3779297e-06"
         clip-path="url(#clipPath37755-8)" />
    </clipPath>
    <linearGradient
       inkscape:collect="always"
       id="linearGradient19621">
      <stop
         style="stop-color:#b9c5c9;stop-opacity:1"
         offset="0"
         id="stop19617" />
      <stop
         style="stop-color:#ece4e0;stop-opacity:1"
         offset="1"
         id="stop19619" />
    </linearGradient>
    <clipPath
       clipPathUnits="userSpaceOnUse"
       id="clipPath37755-3-2-4">
      <rect
         style="opacity:1;vector-effect:none;fill:#12222b;fill-opacity:0.68911917;stroke:none;stroke-width:1.54174387;stroke-linecap:butt;stroke-linejoin:miter;stroke-miterlimit:4;stroke-dasharray:none;stroke-dashoffset:0;stroke-opacity:1;paint-order:normal"
         id="rect37757-8-5-5"
         width="270.93335"
         height="169.33333"
         x="308.02814"
         y="7.9375004e-06" />
    </clipPath>
    <clipPath
       clipPathUnits="userSpaceOnUse"
       id="clipPath37796-4-7-5">
      <rect
         transform="translate(-4.7050103e-6)"
         style="opacity:1;vector-effect:none;fill:#9bbbcd;fill-opacity:1;stroke:none;stroke-width:1.54174387;stroke-linecap:butt;stroke-linejoin:miter;stroke-miterlimit:4;stroke-dasharray:none;stroke-dashoffset:0;stroke-opacity:1;paint-order:normal"
         id="rect37798-9-8-0"
         width="270.93335"
         height="169.33333"
         x="308.02814"
         y="7.3779297e-06"
         clip-path="url(#clipPath37755-8)" />
    </clipPath>
    <linearGradient
       inkscape:collect="always"
       xlink:href="#linearGradient19621"
       id="linearGradient2387"
       gradientUnits="userSpaceOnUse"
       x1="449.27835"
       y1="17.649454"
       x2="449.27835"
       y2="67.45253" />
    <clipPath
       clipPathUnits="userSpaceOnUse"
       id="clipPath37755-3-2-4-3">
      <rect
         style="opacity:1;vector-effect:none;fill:#12222b;fill-opacity:0.68911917;stroke:none;stroke-width:1.54174387;stroke-linecap:butt;stroke-linejoin:miter;stroke-miterlimit:4;stroke-dasharray:none;stroke-dashoffset:0;stroke-opacity:1;paint-order:normal"
         id="rect37757-8-5-5-6"
         width="270.93335"
         height="169.33333"
         x="308.02814"
         y="7.9375004e-06" />
    </clipPath>
    <clipPath
       clipPathUnits="userSpaceOnUse"
       id="clipPath2041">
      <rect
         transform="translate(-4.7050103e-6)"
         style="opacity:1;vector-effect:none;fill:#9bbbcd;fill-opacity:1;stroke:none;stroke-width:1.54174387;stroke-linecap:butt;stroke-linejoin:miter;stroke-miterlimit:4;stroke-dasharray:none;stroke-dashoffset:0;stroke-opacity:1;paint-order:normal"
         id="rect2039"
         width="270.93335"
         height="169.33333"
         x="308.02814"
         y="7.3779297e-06"
         clip-path="url(#clipPath37755-8)" />
    </clipPath>
    <clipPath
       clipPathUnits="userSpaceOnUse"
       id="clipPath2053">
      <rect
         style="opacity:1;vector-effect:none;fill:#12222b;fill-opacity:0.68911917;stroke:none;stroke-width:1.54174387;stroke-linecap:butt;stroke-linejoin:miter;stroke-miterlimit:4;stroke-dasharray:none;stroke-dashoffset:0;stroke-opacity:1;paint-order:normal"
         id="rect2051"
         width="270.93335"
         height="169.33333"
         x="308.02814"
         y="7.9375004e-06" />
    </clipPath>
    <clipPath
       clipPathUnits="userSpaceOnUse"
       id="clipPath2616">
      <path
         style="display:inline;opacity:1;vector-effect:none;fill:#962c8c;fill-opacity:1;stroke:none;stroke-width:0.28083843px;stroke-linecap:butt;stroke-linejoin:miter;stroke-miterlimit:4;stroke-dasharray:none;stroke-dashoffset:0;stroke-opacity:1;paint-order:normal"
         d="M 287.6449,-8.2010648 H 558.57824 V 161.13228 H 287.6449 Z"
         id="path2618"
         inkscape:connector-curvature="0" />
    </clipPath>
    <clipPath
       clipPathUnits="userSpaceOnUse"
       id="clipPath5994">
      <rect
         y="14.97769"
         x="445.58688"
         height="169.33334"
         width="270.93335"
         id="rect5996"
         style="opacity:1;vector-effect:none;fill:url(#linearGradient5998);fill-opacity:1;stroke:none;stroke-width:0.35721621;stroke-linecap:butt;stroke-linejoin:miter;stroke-miterlimit:4;stroke-dasharray:none;stroke-dashoffset:0;stroke-opacity:1;paint-order:normal" />
    </clipPath>
    <clipPath
       clipPathUnits="userSpaceOnUse"
       id="clipPath3378">
      <path
         inkscape:connector-curvature="0"
         id="path3380"
         d="M 139.96459,187.325 H 410.89793 V 356.65834 H 139.96459 Z"
         style="opacity:1;vector-effect:none;fill:#883380;fill-opacity:1;stroke:none;stroke-width:0.5802983;stroke-linecap:butt;stroke-linejoin:miter;stroke-miterlimit:4;stroke-dasharray:none;stroke-dashoffset:0;stroke-opacity:1;paint-order:normal" />
    </clipPath>
  </defs>
  <sodipodi:namedview
     id="base"
     pagecolor="#ffffff"
     bordercolor="#666666"
     borderopacity="1.0"
     inkscape:pageopacity="0.0"
     inkscape:pageshadow="2"
     inkscape:zoom="0.15956439"
     inkscape:cx="1834.4696"
     inkscape:cy="-610.33031"
     inkscape:document-units="px"
     inkscape:current-layer="layer1"
     showgrid="false"
     units="px"
     inkscape:window-width="1320"
     inkscape:window-height="747"
     inkscape:window-x="46"
     inkscape:window-y="21"
     inkscape:window-maximized="1" />
  <metadata
     id="metadata17488">
    <rdf:RDF>
      <cc:Work
         rdf:about="">
        <dc:format>image/svg+xml</dc:format>
        <dc:type
           rdf:resource="http://purl.org/dc/dcmitype/StillImage" />
        <dc:title></dc:title>
      </cc:Work>
    </rdf:RDF>
  </metadata>
  <g
     inkscape:label="Layer 1"
     inkscape:groupmode="layer"
     id="layer1"
     transform="translate(0,-127.66665)">
    <g
       id="g3361"
       clip-path="url(#clipPath3378)"
       transform="translate(-139.96459,-59.658354)"
       inkscape:export-filename="/home/hamdi/MY_FILES/works-marketplace/cartoon-tileset-6-cave/tiled/bg.png"
       inkscape:export-xdpi="72"
       inkscape:export-ydpi="72">
      <path
         style="opacity:1;vector-effect:none;fill:#444454;fill-opacity:1;stroke:none;stroke-width:0.26458335px;stroke-linecap:butt;stroke-linejoin:miter;stroke-miterlimit:4;stroke-dasharray:none;stroke-dashoffset:0;stroke-opacity:1;paint-order:normal"
         d="M 146.54825,199.18576 H 408.8877 V 340.3063 H 146.54825 Z"
         id="rect3658"
         inkscape:connector-curvature="0" />
      <path
         style="opacity:1;vector-effect:none;fill:#38394a;fill-opacity:1;stroke:none;stroke-width:0.90501124px;stroke-linecap:butt;stroke-linejoin:miter;stroke-miterlimit:4;stroke-dasharray:none;stroke-dashoffset:0;stroke-opacity:1"
         d="m 1204.334,850.91602 c -217.05175,0.38227 -482.68994,8.94779 -527.40041,16.79492 -37.88496,6.64917 -81.76139,58.48632 -96.70507,95.20508 -6.23811,15.32787 -1.31932,53.34478 9.66992,65.34568 5.48111,5.9857 16.1515,13.9422 19.34179,21.7813 7.67381,-16.7937 63.91042,-36.2026 87.03516,-26.7325 18.65847,7.6411 37.3856,27.5468 44.72461,42.5743 9.37958,19.2057 13.73891,161.6467 1.20898,182.1718 -6.04728,9.906 -12.24163,20.0561 -18.13086,29.7032 -4.72437,7.7389 -30.03305,19.8007 -39.89062,19.8007 -2.13524,0 -25.3891,1.9747 -25.38672,1.9805 3.23754,7.9551 18.48954,9.9004 26.59375,9.9004 9.40017,0 27.38403,1.755 47.84375,3.8438 -9.96963,16.6042 -18.40324,32.6691 -16.41406,38.6367 0.50615,1.5185 41.99199,10.8789 55.60547,10.8789 10.3248,0 22.83015,2.7754 32.63867,6.0449 21.69709,7.2324 73.48861,0 97.91211,0 73.41989,0 148.15433,0.043 221.21293,-6.0449 23.664,-1.972 71.84,-1.9572 90.6601,-14.5039 2.2876,-1.5251 6.396,-4.6803 7.2539,-7.2539 0.1589,-0.4767 -0.4823,-4.1181 -1.582,-9.5254 27.5777,-0.072 58.0437,-1.1397 70.4844,-6.2344 0.4514,-0.1848 -18.8465,-67.455 -20.5508,-77.2266 -7.6619,-43.9278 -2.416,-91.1231 -2.416,-135.6386 0,-41.6332 -0.8448,-77.4802 16.9218,-113.85941 3.5714,-7.3127 3.5645,-16.78055 10.879,-22.77148 10.7728,-4.48947 23.218,-2.9707 35.0566,-2.9707 48.7884,0 75.3103,24.01283 93.0781,60.39449 6.8977,14.1239 18.286,26.2489 22.9668,41.584 11.9712,39.2198 -3.3738,129.1721 -15.4453,168.7207 -2.5495,8.3527 -12.2621,74.532 -3.8945,76.8164 2.8623,0.7815 33.2305,-0.3064 42.125,-0.1797 -3.1208,-3.6917 -7.9763,-12.689 -8.2793,-13.6816 -3.7163,-12.1753 18.0371,-31.187 18.0371,-43.8027 0,-28.5764 -2.4136,-60.0431 4.1875,-87.0762 7.8646,-32.2074 -10.7673,-55.637 -2.8828,-87.9258 7.4883,-30.6664 55.1166,-198.24293 14.5058,-223.18944 -16.692,-10.25365 -142.4557,-13.8221 -290.9648,-13.56054 z m 265.3965,469.23628 c 1.4978,1.772 2.5996,2.3374 2.5996,0.1797 0,-0.1097 -1.0721,-0.1579 -2.5996,-0.1797 z M 926.78711,962.38672 c 25.81626,-0.0613 48.21737,7.91224 59.60156,31.22266 8.14957,16.68722 13.28404,39.50562 15.71483,57.42382 1.3265,9.7778 7.7017,19.6031 10.8789,28.7109 4.4998,12.8995 0.3757,27.8083 4.836,40.5938 6.5315,18.7237 -3.6905,42.8827 -7.2539,60.3945 -1.2309,6.0484 -0.5732,12.3449 0,18.6309 -3.7985,8.797 -7.1451,16.4131 -8.457,18.3808 -17.1618,25.7427 -41.38677,50.3446 -73.73631,56.8145 -38.71965,7.7439 -95.23477,-2.6693 -129.3418,-30.7305 -0.46225,-1.8846 -0.88006,-3.7748 -1.21094,-5.6719 -2.78717,-15.9797 -12.35003,-31.5486 -16.92383,-46.5332 -3.48506,-11.4176 -5.08541,-148.4942 -1.20898,-156.4316 4.93039,-10.0955 17.47893,-36.36401 30.2207,-41.58202 28.02781,-11.47803 76.6114,-31.12699 116.88477,-31.22266 z m 208.52539,27.48437 c 6.2125,-0.25286 14.2033,8.89473 16.2695,12.27931 16.427,26.9089 8.4055,32.3261 13.711,62.7441 7.1538,41.0149 4.8359,83.931 4.8359,125.7383 0,15.9715 2.1906,33.5118 1.3281,50.0234 -2.3132,3.3111 -4.1371,6.0817 -4.955,7.3086 -19.37,29.0549 -73.7963,29.5873 -101.5411,15.7149 -7.5559,-3.778 -13.2928,-8.7346 -17.666,-14.4863 -4.5649,-41.5845 3.7727,-85.8408 9.2051,-125.8848 3.8467,-28.3559 23.4481,-55.4305 30.2207,-83.166 2.8155,-11.53 32.6953,-44.12622 46.7285,-49.87307 0.5961,-0.24411 1.2206,-0.37228 1.8633,-0.39844 z"
         transform="matrix(0.26458334,0,0,0.26458334,0,-16.933331)"
         id="path3636"
         inkscape:connector-curvature="0" />
      <path
         style="opacity:1;vector-effect:none;fill:#2c2d3d;fill-opacity:1;stroke:none;stroke-width:2.33385587;stroke-linecap:butt;stroke-linejoin:miter;stroke-miterlimit:4;stroke-dasharray:none;stroke-dashoffset:0;stroke-opacity:1;paint-order:normal"
         d="M 496.17773,751.48633 V 1432.5137 H 1585.8223 V 751.48633 Z m 553.40237,127.49023 c -1.6959,7.73156 -1.1188,29.53082 -3.5625,44.73242 6.4169,-12.08148 17.1294,-26.58007 27.1172,-22.08984 14.6366,6.58012 17.8691,26.01051 17.8691,39.43555 0,6.81641 -7.581,20.44922 0,20.44922 4.1403,0 8.1211,-20.60713 8.1211,-23.3711 0,-26.90974 21.6612,-45.03555 50.3613,-32.13281 9.92,4.45973 23.4674,16.90354 30.6582,23.36914 3.9564,3.55733 9.1068,17.46803 11.5782,21.91211 7.3151,13.15465 23.2447,33.47212 29.7421,47.10352 5.0417,10.57753 12.4981,94.59073 12.4981,106.26563 0,28.81 0.168,108.8481 -21.1055,154.5644 -11.1227,23.9026 -30.9832,31.0981 -53.625,32.4004 -10.0607,-5.4544 -11.298,-14.6591 -15.3754,-23.8244 -0.7028,-1.58 -2.4553,-18.3131 -2.4553,-19.4908 0,-7.1299 -3.3476,-12.3873 -3.951,-19.4796 -0.6956,-8.1769 -8.6574,-6.3533 -8.3651,1.1953 l 0.9066,13.3984 c 0.7159,10.5802 6.3843,56.9648 -12.9961,56.9648 -23.8295,0 -21.5582,-59.0969 -27.6172,-48.2012 -11.3205,20.3576 18.8251,78.6738 -53.6074,56.9649 l 24.3672,4.3828 c -22.1139,-9.9418 -55.8277,-8.1019 -71.4805,-29.2129 -19.74145,-26.6254 -46.44671,-60.9932 -57.56445,-90.9824 -4.03363,-10.8803 3.95703,-42.1687 3.95703,-53.625 0,-55.5801 -6.09467,-177.64222 42.50586,-234.22658 15.45929,-17.99887 46.52956,-24.57731 72.02346,-26.50196 z m 390.5605,58.76953 c 23.596,-0.0478 35.6179,19.70457 45.5899,37.63672 2.6061,4.68662 -1.8403,35.61339 0.6914,40.16599 6.8843,12.38 24.1262,8.0672 26.75,22.2227 3.6587,19.7383 13.7731,108.1149 6.8808,167.125 -3.0558,26.1621 -18.4484,48.237 -23.8847,53.125 -8.117,7.2983 -20.2436,6.0707 -20.3789,6.3144 -3.7434,6.7315 -14.4101,4.2133 -23.4805,8.2911 -16.8834,7.5902 -87.8975,33.1332 -99.0977,2.9218 -7.0916,-19.1289 -18.7661,-38.2832 -24.3671,-58.4277 -15.2163,-54.7259 -3.3693,-114.7338 6.5,-167.9766 4.4655,-48.437 36.8408,-91.65843 79.5996,-105.16794 9.6655,-4.3454 17.974,-6.21535 25.1972,-6.23047 z m -748.33982,14.15235 c 24.51798,14.92331 1.61904,64.93606 11.75781,69.49416 5.20245,2.3388 6.4961,-17.3681 6.4961,-19.7188 0,-11.46075 4.48423,-28.86412 13.80859,-37.24802 23.60451,-21.22375 20.27821,15.32576 25.17969,17.5293 2.76094,1.24135 0.72511,-5.72372 2.4375,-8.0332 3.77461,-5.09088 7.55921,-10.19867 11.37109,-15.33985 1.21788,-1.64254 3.43148,-3.36678 6.08985,-5.08594 17.06759,2.55035 32.9001,8.01087 42.64648,19.69532 11.07681,13.27948 19.68689,31.57649 29.64258,45.00389 8.85743,11.9461 7.61675,174.3755 1.22265,191.6231 -6.84268,18.4574 -9.5897,51.7809 -30.86523,61.3457 -4.05286,1.8219 -9.36454,3.5253 -15.56641,5.0547 -3.06274,-1.9978 -5.81547,-4.064 -7.17773,-6.5137 -5.23499,-9.4139 -6.55577,-27.2798 -8.93555,-37.9785 -1.10385,-4.9629 -0.0942,-34.7326 -2.43554,-35.7852 -0.27081,-0.1217 -2.06635,18.0505 -2.4375,19.7188 -3.69767,16.6234 -8.93555,35.7518 -8.93555,53.3164 0,13.8022 -6.03194,-2.7847 -8.93359,-3.6543 -12.05617,-3.6134 4.00069,13.4849 -11.3711,6.5742 -4.08295,-1.8355 -7.13385,-3.7743 -9.75,-7.3027 -5.59226,-7.5424 5.9132,-30.7828 -2.43554,-35.7872 -0.12949,-0.078 -3.57685,23.388 -4.06055,25.5625 -2.56143,11.5153 -12.52866,21.739 -24.56445,28.4532 -30.41674,-2.2552 -57.14797,-9.6095 -65.59571,-24.8008 -10.42775,-18.752 -1.48397,-53.7949 -9.74609,-68.6524 -4.52652,-8.1398 -27.07739,6.814 -32.49024,-2.9199 -14.93189,-26.8516 0,-120.4605 0,-151.9121 0,-8.583 9.32939,-22.0765 14.61914,-29.2109 5.38194,-7.25869 18.7354,-2.3356 21.11914,-8.76565 2.27876,-6.1468 18.66096,-24.27864 1.625,-20.44922 12.39757,-17.63327 34.48486,-22.73139 57.28516,-24.21289 z"
         transform="matrix(0.26458334,0,0,0.26458334,0,-16.933331)"
         id="rect2412"
         inkscape:connector-curvature="0"
         sodipodi:nodetypes="ccccccccsssccccscccsscsscccscsscccccccccsccccccsscccccccccscccscccccccccscccc" />
      <path
         style="opacity:1;vector-effect:none;fill:#323344;fill-opacity:1;stroke:none;stroke-width:0.23841126px;stroke-linecap:butt;stroke-linejoin:miter;stroke-miterlimit:4;stroke-dasharray:none;stroke-dashoffset:0;stroke-opacity:1"
         d="m 205.92112,236.30547 c 10.20688,1.67331 11.76453,10.67131 14.39898,17.77752 0.21289,0.57429 2.36401,1.46406 2.36401,1.54588 0,1.09644 -1.55231,2.1464 -1.07455,3.86468 1.57758,5.67385 1.50436,10.64441 1.50436,16.81133 0,5.44889 0.99378,12.58487 -0.85964,17.5843 0.33144,8.21287 -0.82578,16.66905 -5.80257,23.38128 -1.15645,1.55972 -2.84022,2.36052 -4.2982,3.67144 -0.5479,0.49264 -2.70904,1.1594 -1.93418,1.1594 0.98334,0 2.11307,-1.0842 3.00873,-1.35263 6.55421,-1.96437 9.5198,-5.00283 11.82005,-11.20757 0.5549,-1.49678 2.26304,-2.33046 3.00875,-3.67144 0.66853,-1.20223 -3.74109,-1.77479 -2.79383,-3.47821 0.57118,-1.02713 3.32114,-2.05583 2.79383,-3.47821 -0.5817,-1.56909 -2.91229,-1.86537 -3.43857,-3.28497 -0.036,-0.097 2.60623,-3.93833 2.79383,-4.44437 1.07948,-2.91179 0,-7.73503 0,-10.8211 0,-4.73343 1.28325,-11.22994 0,-15.84517 -0.47369,-1.70368 -1.9725,-3.3539 -2.79383,-4.83085 -1.38467,-2.49002 2.60926,-4.74906 1.71929,-7.14966 -0.82073,-2.21384 -4.65426,-3.47247 -5.37275,-5.41054 -0.87764,-2.36736 4.08495,-4.05491 2.79383,-6.37672 -0.88974,-1.6 -3.30628,-1.27334 -4.72802,-2.12557 -0.74839,-0.4486 -0.78383,-1.80163 -1.50437,-2.12558 -1.4458,-0.64998 -10.55922,-0.82019 -11.60515,-0.19324 z"
         id="path3455"
         inkscape:connector-curvature="0" />
      <path
         style="opacity:1;vector-effect:none;fill:#323344;fill-opacity:1;stroke:none;stroke-width:0.23841126px;stroke-linecap:butt;stroke-linejoin:miter;stroke-miterlimit:4;stroke-dasharray:none;stroke-dashoffset:0;stroke-opacity:1"
         d="m 176.1137,235.17965 c -9.79059,-1.62568 -9.287,7.04451 -11.24536,7.92493 -1.47976,0.66525 -3.65635,0.28156 -4.86287,1.36636 -0.91905,0.82638 0.68815,2.6176 -1.51963,3.27929 -2.17115,0.65074 -5.14501,0.40012 -7.29429,1.36637 -0.23343,0.10494 -2.43144,-0.0942 -2.43144,0 0,1.75048 7.27174,0.0407 5.47072,3.27929 -1.78371,3.20762 0.65738,5.64972 -0.30392,7.37839 -0.62402,1.12219 -1.79448,2.13388 -2.43143,3.27931 -0.77847,1.3999 2.13031,3.00095 1.21571,4.64563 -0.4753,0.85473 -2.73535,1.28118 -2.73535,2.45947 0,0.16458 1.68966,0.18533 1.82356,0.54655 2.28178,6.15491 -1.42103,13.92968 0.91179,20.22228 0.84595,2.28188 -3.28673,3.43165 -2.73535,4.91892 0.23034,0.62133 1.38462,0.97169 1.82356,1.36637 1.13055,1.01651 0,1.50735 0,2.45946 0,1.18171 9.47809,-0.44531 10.63752,1.63965 1.29257,2.32442 -1.08985,6.23839 0.30392,8.74476 2.67144,4.804 2.70213,7.62181 7.59821,12.02407 0.87207,0.78409 3.26456,0.37454 4.25501,0.81981 0.43704,0.19647 6.99036,0.11533 6.99036,-0.27326 0,-0.46697 -10.21565,-5.79998 -11.85322,-8.74477 -2.35029,-4.22646 1.68665,-11.17716 -0.60787,-15.30335 -1.43811,-2.58616 -8.88969,-2.04917 -10.63749,-5.1922 -1.82237,-3.27709 -0.0587,-8.09269 1.51963,-10.93095 1.33971,-2.40917 -2.54201,-4.72007 -1.2157,-7.10513 0.75607,-1.35964 2.01907,-2.44026 2.73535,-4.37237 0.76037,-2.05105 -3.32645,-15.60677 -1.51965,-18.85591 1.67277,-3.00809 10.86781,-1.71429 11.85322,-4.37239 1.46396,-3.94889 -1.32735,-8.80611 4.25501,-12.57058 z"
         id="path3471"
         inkscape:connector-curvature="0" />
      <path
         style="opacity:1;vector-effect:none;fill:#323344;fill-opacity:1;stroke:none;stroke-width:0.23841126px;stroke-linecap:butt;stroke-linejoin:miter;stroke-miterlimit:4;stroke-dasharray:none;stroke-dashoffset:0;stroke-opacity:1"
         d="m 270.93945,216.32374 c -8.3135,0.22833 -14.82374,4.67151 -16.71609,11.4775 -0.62178,2.23629 -2.9167,6.84946 -5.16679,8.19822 -0.76702,0.45977 -5.22067,1.29368 -4.55893,2.18619 0.73422,0.99023 2.7217,0.79524 3.03928,1.36637 0.44039,0.79193 -1.51964,7.89229 -1.51964,9.83786 0,3.6364 -4.55893,3.96602 -4.55893,4.09911 0,0.7734 3.11919,0.2155 3.34322,0.81982 0.61254,1.65228 -3.34322,1.1268 -3.34322,2.45946 0,0.3391 1.56974,0.43246 1.82358,0.54654 0.61401,0.27606 1.08253,1.98047 1.21571,2.45947 0.92811,3.33799 -0.31078,10.39676 -1.82356,13.11714 -1.25508,2.25696 -0.30393,8.74906 -0.30393,11.20423 0,1.52639 1.2796,11.57846 1.2157,11.75079 -0.31845,0.859 -4.55893,0.13036 -4.55893,1.91293 0,0.49857 2.7817,0.27328 3.0393,0.27328 4.3554,0 9.30718,19.88027 14.8925,23.22826 0.83171,0.49854 1.65947,-0.0738 2.43142,0.27329 0.59475,0.26738 1.25852,0.93722 2.12751,0.54655 0.86451,-0.38868 -1.53223,-5.20353 -2.12751,-5.73875 -4.19091,-3.76823 -9.15576,-14.07333 -10.6375,-19.40246 -2.62876,-9.45447 -1.56409,-22.56181 1.82356,-31.69978 1.03132,-2.78185 -0.32212,-5.98744 1.51965,-8.47149 2.36202,-3.18566 -0.11668,-9.9647 0.9118,-13.66369 1.53993,-5.53844 5.71927,-17.14988 9.42178,-21.58864 2.32611,-2.78866 5.50548,-3.39123 8.51002,-5.1922 z"
         id="path3480"
         inkscape:connector-curvature="0" />
      <path
         style="opacity:1;vector-effect:none;fill:#323344;fill-opacity:1;stroke:none;stroke-width:0.23841126px;stroke-linecap:butt;stroke-linejoin:miter;stroke-miterlimit:4;stroke-dasharray:none;stroke-dashoffset:0;stroke-opacity:1"
         d="m 306.80302,225.06851 c 0.71487,2.7316 4.42289,4.12772 5.77464,6.55857 5.4945,9.88062 12.15715,21.63323 12.15715,33.33941 0,1.21665 1.0078,3.65319 0.30391,4.91893 -0.35055,0.63037 -3.42625,1.41564 -3.03928,2.45947 0.57685,1.55596 3.38211,2.01782 3.9511,3.55255 0.76544,2.0648 -1.13187,7.50088 -2.12752,9.29132 -0.90642,1.62997 1.44553,3.9591 0.60785,5.46548 -2.21789,3.98837 -2.14419,16.98801 -4.25498,22.68173 -0.98962,2.66942 -6.6946,1.92758 -7.59823,3.55257 -0.45305,0.8147 5.47071,1.72696 5.47071,1.91292 0,1.78566 -4.26574,2.09833 -5.47071,2.45945 -0.21734,0.0652 -4.25499,1.38244 -4.25499,1.09311 0,-0.78359 2.00305,1.26091 1.51963,1.91292 -0.70352,0.94886 -8.81393,7.27368 -8.81393,4.91891 0,-0.12215 4.20012,0.16133 4.55893,0 2.78108,-1.25027 7.14063,-2.04804 9.42179,-4.0991 6.08667,-5.47275 9.80891,-13.06832 12.46106,-20.22227 1.51115,-4.07618 0.99048,-17.63102 1.8236,-19.12917 1.02547,-1.84412 4.69025,-3.58965 3.03928,-6.55856 -0.73181,-1.316 -3.29169,-3.09396 -3.64717,-4.3724 -0.24477,-0.88032 0.60789,-3.45756 0.60789,-4.64566 0,-7.60104 -0.72347,-11.95862 -4.25503,-18.30935 -1.90853,-3.43209 3.9511,-2.14296 3.9511,-3.55256 0,-2.64843 -5.65963,-2.96896 -6.38253,-4.91892 -0.60969,-1.64459 0.83228,-4.11185 0.30395,-6.01204 -0.46501,-1.67245 -2.92595,-2.44326 -3.95108,-3.82583 -1.15703,-1.56048 -0.67804,-3.37391 -1.82355,-4.91893 -1.73017,-2.33345 -7.48023,-4.06567 -10.33359,-3.55255 z"
         id="path3487"
         inkscape:connector-curvature="0" />
      <path
         style="opacity:1;vector-effect:none;fill:#323344;fill-opacity:1;stroke:none;stroke-width:0.23841126px;stroke-linecap:butt;stroke-linejoin:miter;stroke-miterlimit:4;stroke-dasharray:none;stroke-dashoffset:0;stroke-opacity:1"
         d="m 383.30684,231.70335 c -1.42598,-0.002 -2.82064,0.0842 -4.08962,0.21105 10.54682,0.55058 11.75206,12.64759 13.70232,19.66178 0.2348,0.8445 -0.91191,1.41769 -0.91191,1.91275 0,2.60534 5.471,0.3079 5.471,3.55264 0,2.84097 0.3243,4.97492 1.21539,7.37856 1.58667,4.27987 -2.37543,18.4591 -0.60745,23.2281 1.58197,4.2672 2.93075,15.04895 1.21541,19.67589 -0.49511,1.33552 -0.79494,2.79608 -1.51938,4.09882 -0.29067,0.52271 -2.73526,2.11615 -2.73526,2.18652 0,0.36034 2.01796,0.74286 1.21541,2.18606 -0.90779,1.63247 -6.57721,0.37586 -8.48718,-1.04159 0.44321,1.00228 0.66266,2.6347 -1.23848,3.77429 -1.09905,0.65883 -9.42166,2.29094 -9.42166,3.27932 0,0.71749 5.82619,-0.76323 6.07846,-0.81995 7.03495,-1.58135 13.52024,0.009 17.32396,-6.83195 1.20792,-2.17217 0.4031,-6.28258 1.82337,-8.19807 5.42501,-7.31678 1.54641,-24.20072 -0.30398,-32.51942 -1.55989,-7.01275 2.20595,-14.74809 0.30398,-21.58866 -0.50469,-1.8151 -5.7082,-3.16052 -7.29388,-6.01201 -1.20899,-2.17411 0.35967,-6.63119 -0.30397,-9.01802 -1.12311,-4.03926 -6.43984,-5.1092 -11.43653,-5.11611 z m 4.46873,83.05058 c -0.27298,-0.61734 -0.63053,-0.99689 -0.63053,-0.87159 0,0.28155 0.23752,0.57993 0.63053,0.87159 z m -8.55835,-82.83953 c -0.0927,-0.005 -0.1844,-0.011 -0.27846,-0.0142 l -1.82333,0.27332 c 0.63835,-0.0957 1.34957,-0.184 2.10179,-0.25919 z"
         id="path3494"
         inkscape:connector-curvature="0" />
      <path
         style="opacity:1;vector-effect:none;fill:#323344;fill-opacity:1;stroke:none;stroke-width:0.23841126px;stroke-linecap:butt;stroke-linejoin:miter;stroke-miterlimit:4;stroke-dasharray:none;stroke-dashoffset:0;stroke-opacity:1"
         d="m 367.08569,235.72619 c -7.72268,3.20807 -11.7836,8.43177 -13.37287,15.57662 -0.24755,1.11298 -0.0436,3.35753 -0.60786,4.37238 -3.01274,5.4177 -3.65953,11.49976 -6.6864,16.94297 -0.80424,1.44617 2.65813,5.05776 1.51962,7.10512 -1.86128,3.34709 -1.21571,19.54107 -1.21571,24.04811 0,0.48191 7.67067,18.64778 8.20608,19.12917 1.63692,1.47182 4.29403,1.91293 6.68643,1.91293 1.119,0 4.34405,0.72322 3.3432,0.27326 -7.03719,-3.16371 -9.67422,-13.29781 -12.765,-18.85589 -1.41476,-2.54413 1.00981,-6.84071 0,-9.5646 -0.6306,-1.70101 -3.28598,-6.49915 -1.82357,-8.47148 0.95085,-1.28242 3.64714,-2.74389 3.64714,-4.09913 0,-7.18056 -4.846,-13.96727 -0.60785,-21.58863 3.06313,-5.50839 4.54241,-11.99435 7.59822,-17.48952 1.80164,-3.23983 6.07857,-5.46555 6.07857,-9.29131 z"
         id="path3502"
         inkscape:connector-curvature="0" />
      <path
         style="opacity:1;vector-effect:none;fill:#2a2939;fill-opacity:1;stroke:none;stroke-width:0.23841128px;stroke-linecap:butt;stroke-linejoin:miter;stroke-miterlimit:4;stroke-dasharray:none;stroke-dashoffset:0;stroke-opacity:1"
         d="m 332.76162,208.35525 c -6.12723,0.036 -12.49197,1.17153 -16.53703,3.59625 -2.02112,1.21151 -5.79455,0.55097 -8.20567,1.09296 -1.06143,-0.0447 -1.84874,0.0149 -2.7356,0.54648 -3.99418,2.3942 12.53903,5.60563 12.76516,6.01232 0.71328,1.28266 -3.62649,1.42216 -3.03948,3.00565 1.10122,2.97039 6.82896,2.44218 7.90233,4.37237 0.64817,1.16564 -0.5401,3.15829 0,4.37236 1.61412,3.62831 6.74623,4.20655 8.51012,7.37854 1.273,2.2892 2.77087,4.74286 3.6467,7.10528 1.58897,4.28619 0.50206,10.67539 3.98499,20.07031 1.041,2.80798 3.24563,-12.39489 3.34337,-12.57063 1.11937,-2.01296 4.34939,-2.62928 5.47064,-4.6456 1.40778,-2.53157 -0.32072,-7.57674 0.30388,-10.38469 0.99763,-4.48506 11.78585,-7.2945 15.8041,-8.19774 14.72081,-3.30901 -16.74961,-7.07029 -16.74961,-7.22695 0,-1.32784 2.99417,-2.37813 3.64728,-3.55264 3.29302,-5.92179 -6.62461,-3.22352 -8.814,-5.19209 -0.0653,-0.0587 3.34195,-1.0904 3.64728,-1.63945 0.58314,-1.04864 -0.4458,-2.41097 -1.52005,-2.73292 -3.15103,-0.94441 -7.23209,-1.43439 -11.42441,-1.40981 z m -67.06435,0.7006 c -1.68334,-0.0142 -3.2998,0.10161 -4.78729,0.43596 -7.43734,1.6718 -14.33675,0.88606 -21.88306,1.63996 -11.52562,1.15147 -22.61704,1.09296 -34.34377,1.09296 -5.35841,0 -28.54474,-3.5639 -32.21652,-1.91319 -0.88686,0.39871 -9.14668,2.13464 -8.81399,2.73292 0.95613,1.7194 16.76402,-0.12967 15.1963,4.09913 -0.97683,2.63489 -9.36984,-0.90566 -8.20623,3.2794 0.35125,1.26327 5.03489,0.42743 6.07898,1.3662 0.90235,0.81135 -0.98967,2.11632 0,3.00617 2.63766,2.37163 13.51231,-0.41214 17.32355,0.27323 3.39248,0.61007 5.36618,3.46074 8.20621,4.09913 3.65382,0.82133 9.77389,0.48446 14.2119,0.82936 0.26075,0.32533 0.67563,0.62716 1.27759,0.89779 4.08593,2.01694 7.0431,5.32192 9.02656,8.88869 0.98975,1.77987 -1.10524,3.80986 0,5.79738 0.64689,1.1633 2.88873,0.83536 3.43866,2.31875 0.84782,2.28693 -1.3577,6.46731 0,8.50192 0.99076,1.4847 2.6027,2.74891 3.4381,4.25121 1.17214,2.10783 -2.23436,19.24445 -3.00847,22.02861 -1.06753,3.83943 0.79892,8.77969 2.57885,11.98053 2.15884,3.88218 -3.28231,15.56477 -5.15772,18.93728 -2.34485,4.21666 -8.17502,8.60034 -12.89483,9.6613 -0.83166,0.18693 -7.23679,2.0581 -6.87676,2.70553 0.024,0.0432 0.0573,0.0826 0.0952,0.12015 -6.81635,1.0168 -13.77324,1.45999 -20.71766,1.45999 -6.70748,0 -9.34752,-0.43299 -15.19631,-2.18594 -0.9166,-0.27473 -2.51688,0.0978 -3.34337,-0.27375 -3.04692,-1.36979 -4.46559,-2.7324 -8.20623,-2.7324 -1.91333,0 -4.19015,0.38069 -5.77451,1.09295 -0.13973,0.0628 -1.21557,-0.0376 -1.21557,0 0,1.14835 9.81469,1.55993 7.59844,3.55265 -2.94239,2.6456 -10.63793,1.45638 -10.63793,2.45969 0,1.0848 15.34169,1.89979 15.80465,2.73239 0.81071,1.45787 -1.55688,2.5691 -3.42907,3.00616 h 6.1641 c 5.39598,0 16.7696,-1.16825 21.57917,0.27326 1.73134,0.5189 5.06884,1.36619 6.6862,1.36619 1.62782,0 2.67486,0.80607 3.95116,1.09298 4.62606,1.03984 9.86302,-0.0296 14.58853,0.82021 10.15062,1.82539 29.98237,-1.09347 41.63829,-1.09347 12.90304,0 30.30859,5.77709 41.9422,0.54701 1.48157,-0.66607 -12.2455,-1.99247 -13.06904,-2.73292 -4.9017,-4.40736 -13.53005,-5.38471 -20.05916,-6.55882 -3.92062,-0.70503 -8.72009,-0.91387 -12.15737,-2.45917 -1.43037,-0.64305 -1.20417,-2.63502 -2.73503,-3.55264 -2.6397,-1.5823 -5.43345,-3.53946 -8.28346,-5.25545 -1.08176,-4.97967 0.0252,-9.83706 -1.69763,-12.93512 -2.15138,-3.86878 -8.3764,-7.54904 -6.44713,-12.7531 0.68328,-1.84304 2.36458,-3.28748 3.00847,-5.02428 0.57084,-1.53983 2.05785,-26.60909 1.71962,-27.82549 -1.04901,-3.77282 -5.41143,-8.59112 -3.86829,-12.75363 0.78308,-2.11226 3.23772,-2.34467 4.29791,-4.2512 2.09566,-3.76855 -1.42307,-9.15484 2.57886,-12.75312 3.94171,-3.54414 12.73125,-2.61239 8.59637,-10.04808 -0.1702,-0.30607 -0.75291,-0.44895 -1.48281,-0.50592 0.12596,-0.0885 0.24762,-0.1826 0.36196,-0.28541 1.39492,-1.25421 2.89498,-3.35106 4.55895,-4.09912 3.41384,-1.53476 23.30828,-3.868 27.65757,-1.91269 0.7581,0.34082 1.10066,1.42269 1.82393,1.63945 1.17416,0.35191 8.13857,1.09296 9.42177,1.09296 1.92068,0 4.10054,-1.78148 3.34282,-3.82538 -0.31818,-0.85829 -14.11046,-1.09347 -16.41187,-1.09347 -4.57073,0 -10.22184,-1.2132 -15.27186,-1.25569 z M 163.26304,335.19796 h -0.52209 c -0.50654,0 -1.52002,-0.45544 -1.52002,0 0,0.28195 0.93491,0.25849 2.04211,0 z m 169.07008,-39.62452 c -2.00342,4.319 2.0135,11.08459 -0.91167,15.02978 -1.79509,2.42109 -4.68052,4.59051 -6.07898,7.10528 -1.13854,2.04748 2.40756,3.86932 1.21613,6.01181 -0.35318,0.63512 -2.84711,1.70679 -3.64727,2.18646 -0.87054,0.5218 -0.77636,1.85157 -1.52003,2.18591 -4.30573,1.93572 -9.24579,4.69854 -14.89239,3.00617 -0.86367,-0.25885 -3.40176,-5.98557 -4.55896,-5.46535 -0.89357,0.40174 -0.0589,3.05916 -0.91168,3.82591 -2.35244,2.11515 -7.59786,0.94742 -7.59786,1.36619 0,0.87603 2.26831,1.38575 1.51944,2.73242 -0.21875,0.39343 -3.07903,1.29556 -3.03948,1.3667 0.32977,0.59303 8.7842,1.24521 11.85349,1.63945 7.64347,0.98179 20.42252,2.7876 27.96146,1.09296 1.45369,-0.32676 1.56099,-1.93134 2.73503,-2.45917 0.70506,-0.31697 23.8504,0.84378 27.65759,0.27326 1.24166,-0.1861 15.80465,-3.82323 15.80465,-4.09914 0,-0.54654 -1.21604,0 -1.82392,0 h -9.11788 c -6.34083,0 -7.33611,-2.40072 -12.46071,-3.55264 -4.75704,-1.06931 -2.21398,-2.10278 -6.4731,-4.65575 -2.96538,-1.77755 -1.9217,-15.13759 -5.07651,-19.3925 -1.75375,-2.36532 -7.61538,-6.15989 -10.63735,-8.19775 z"
         id="path3534"
         inkscape:connector-curvature="0" />
      <path
         style="opacity:1;vector-effect:none;fill:#2a2939;fill-opacity:1;stroke:none;stroke-width:0.90108198px;stroke-linecap:butt;stroke-linejoin:miter;stroke-miterlimit:4;stroke-dasharray:none;stroke-dashoffset:0;stroke-opacity:1"
         d="m 907.81641,788.61719 c -22.32208,0 -87.58767,26.31654 -99.12305,20.54883 -4.51578,-2.25789 18.34564,-7.25196 13.29687,-7.25196 -15.2454,0 -45.14404,3.42809 -60.43945,7.25196 -27.77998,6.94499 -64.78799,-0.96526 -91.86914,-4.83399 -17.03437,-2.43349 -101.5752,-22.9346 -113.62891,-10.88086 -10.39101,10.39098 37.7488,22.13829 36.26368,26.59375 -1.37847,4.13541 -7.99109,4.11397 -10.87891,4.83594 -2.96202,0.74048 9.86577,5.57534 1.20898,8.46094 -2.43435,0.81146 -22.84322,2.66507 -20.54882,7.2539 2.54736,5.09473 31.21428,3.62696 37.47265,3.62696 69.27462,0 132.95983,15.02619 203.08008,13.29687 7.62323,-3.81158 15.45034,-2.33045 22.9668,-4.83594 77.46527,-25.82177 176.13951,-27.58619 257.47661,-7.25195 38.4308,9.60771 98.1167,-6.04492 137.8046,-6.04492 14.021,0 15.4067,-10.03105 26.5938,-14.50586 13.8685,-5.54744 27.3257,-7.49656 41.0996,-12.08789 3.5475,-1.1825 33.8457,-1.41892 33.8457,-3.62695 0,-0.68108 -31.1239,-3.625 -36.2637,-3.625 -22.5447,0 -46.8815,1.98616 -68.9023,-2.41797 -26.1556,-5.23113 -42.6752,-9.67188 -70.1113,-9.67188 -35.453,0 -100.7921,-5.06496 -78.5723,6.04492 4.8466,2.42332 18.1268,-3.63288 21.7598,0 12.6119,12.61187 -94.4257,7.25196 -103.95903,7.25196 -4.09784,0 -38.68164,1.30548 -38.68164,-1.20703 0,-7.09739 29.96185,-3.88581 25.38477,-8.4629 -7.21448,-7.21447 -23.61341,2.98035 -30.22071,-3.62695 -1.16772,-1.16761 6.01469,-1.20898 6.04493,-1.20898 10.57757,0 20.13154,-3.625 31.42968,-3.625 h -4.83593 -18.13282 z m 459.34769,7.25195 c -5.3666,3.98498 -11.7168,6.71319 -16.9239,10.87891 -23.59,18.87193 -39.6574,5.92831 -61.6484,16.92383 -0.3651,0.18255 -19.67,3.29881 -19.3418,3.62695 3.778,3.77801 26.4052,3.54957 32.6387,6.04297 2.7234,1.08937 32.6386,12.55456 32.6386,14.50586 0,6.19967 -19.5577,5.61116 -15.7148,13.29687 2.8944,5.78873 21.2476,-3.43833 24.1758,2.41797 1.5653,3.13058 -2.302,7.68437 -3.627,9.67188 -2.5745,3.86161 4.5735,5.88393 3.627,9.66992 -0.8901,3.56054 -8.461,5.87052 -8.461,8.46093 0,0.6841 25.9472,-0.8997 27.8028,-1.20898 21.0704,-3.51175 44.856,-1.20898 66.4844,-1.20898 9.8494,0 94.565,0.37728 95.496,-2.41602 1.641,-4.92268 -15.241,-11.14015 -16.9238,-14.50586 -3.4122,-6.82431 16.9238,-10.47473 16.9238,-18.13281 0,-4.73344 -19.6746,-6.5862 -13.2968,-19.3418 3.391,-6.78202 26.3759,-11.53037 22.9668,-21.75781 0,-0.004 -79.2204,6.04492 -90.6602,6.04492 -2.8951,0 -20.5508,-3.54373 -20.5508,-7.25391 0,-4.02765 44.7266,-6.75781 44.7266,-7.25195 0,-3.46027 -18.3003,-2.41797 -20.5508,-2.41797 -20.4987,0 -60.463,3.61415 -79.7812,-6.04492 z"
         transform="matrix(0.26458334,0,0,0.26458334,0,-16.933331)"
         id="path3664"
         inkscape:connector-curvature="0" />
    </g>
  </g>
</svg>
